<svg width="740" height="515" viewBox="0 0 740 515" fill="none" xmlns="http://www.w3.org/2000/svg">
<rect width="740" height="515" fill="#EAFBFF"/>
<path d="M150.618 231.4V251H146.894L137.122 239.1V251H132.642V231.4H136.394L146.138 243.3V231.4H150.618ZM161.024 235.712C163.357 235.712 165.149 236.272 166.4 237.392C167.65 238.493 168.276 240.164 168.276 242.404V251H164.188V249.124C163.366 250.524 161.836 251.224 159.596 251.224C158.438 251.224 157.43 251.028 156.572 250.636C155.732 250.244 155.088 249.703 154.64 249.012C154.192 248.321 153.968 247.537 153.968 246.66C153.968 245.26 154.49 244.159 155.536 243.356C156.6 242.553 158.233 242.152 160.436 242.152H163.908C163.908 241.2 163.618 240.472 163.04 239.968C162.461 239.445 161.593 239.184 160.436 239.184C159.633 239.184 158.84 239.315 158.056 239.576C157.29 239.819 156.637 240.155 156.096 240.584L154.528 237.532C155.349 236.953 156.329 236.505 157.468 236.188C158.625 235.871 159.81 235.712 161.024 235.712ZM160.688 248.284C161.434 248.284 162.097 248.116 162.676 247.78C163.254 247.425 163.665 246.912 163.908 246.24V244.7H160.912C159.12 244.7 158.224 245.288 158.224 246.464C158.224 247.024 158.438 247.472 158.868 247.808C159.316 248.125 159.922 248.284 160.688 248.284ZM191.521 235.712C193.406 235.712 194.9 236.272 196.001 237.392C197.121 238.493 197.681 240.155 197.681 242.376V251H193.313V243.048C193.313 241.853 193.061 240.967 192.557 240.388C192.072 239.791 191.372 239.492 190.457 239.492C189.43 239.492 188.618 239.828 188.021 240.5C187.424 241.153 187.125 242.133 187.125 243.44V251H182.757V243.048C182.757 240.677 181.805 239.492 179.901 239.492C178.893 239.492 178.09 239.828 177.493 240.5C176.896 241.153 176.597 242.133 176.597 243.44V251H172.229V235.936H176.401V237.672C176.961 237.037 177.642 236.552 178.445 236.216C179.266 235.88 180.162 235.712 181.133 235.712C182.197 235.712 183.158 235.927 184.017 236.356C184.876 236.767 185.566 237.373 186.089 238.176C186.705 237.392 187.48 236.785 188.413 236.356C189.365 235.927 190.401 235.712 191.521 235.712ZM216.516 243.524C216.516 243.58 216.488 243.972 216.432 244.7H205.036C205.241 245.633 205.727 246.371 206.492 246.912C207.257 247.453 208.209 247.724 209.348 247.724C210.132 247.724 210.823 247.612 211.42 247.388C212.036 247.145 212.605 246.772 213.128 246.268L215.452 248.788C214.033 250.412 211.961 251.224 209.236 251.224C207.537 251.224 206.035 250.897 204.728 250.244C203.421 249.572 202.413 248.648 201.704 247.472C200.995 246.296 200.64 244.961 200.64 243.468C200.64 241.993 200.985 240.668 201.676 239.492C202.385 238.297 203.347 237.373 204.56 236.72C205.792 236.048 207.164 235.712 208.676 235.712C210.151 235.712 211.485 236.029 212.68 236.664C213.875 237.299 214.808 238.213 215.48 239.408C216.171 240.584 216.516 241.956 216.516 243.524ZM208.704 239.016C207.715 239.016 206.884 239.296 206.212 239.856C205.54 240.416 205.129 241.181 204.98 242.152H212.4C212.251 241.2 211.84 240.444 211.168 239.884C210.496 239.305 209.675 239.016 208.704 239.016ZM235.586 239.38C237.303 239.66 238.619 240.304 239.534 241.312C240.449 242.301 240.906 243.533 240.906 245.008C240.906 246.147 240.607 247.201 240.01 248.172C239.413 249.124 238.498 249.889 237.266 250.468C236.053 251.047 234.559 251.336 232.786 251.336C231.405 251.336 230.042 251.159 228.698 250.804C227.373 250.431 226.243 249.908 225.31 249.236L227.074 245.764C227.821 246.324 228.679 246.763 229.65 247.08C230.639 247.379 231.647 247.528 232.674 247.528C233.813 247.528 234.709 247.313 235.362 246.884C236.015 246.436 236.342 245.811 236.342 245.008C236.342 243.403 235.119 242.6 232.674 242.6H230.602V239.604L234.634 235.04H226.29V231.4H240.01V234.34L235.586 239.38ZM261.57 250.272C261.141 250.589 260.609 250.832 259.974 251C259.358 251.149 258.705 251.224 258.014 251.224C256.222 251.224 254.831 250.767 253.842 249.852C252.871 248.937 252.386 247.593 252.386 245.82V239.632H250.062V236.272H252.386V232.604H256.754V236.272H260.506V239.632H256.754V245.764C256.754 246.399 256.913 246.893 257.23 247.248C257.566 247.584 258.033 247.752 258.63 247.752C259.321 247.752 259.909 247.565 260.394 247.192L261.57 250.272ZM273.178 235.712C275.045 235.712 276.547 236.272 277.686 237.392C278.843 238.512 279.422 240.173 279.422 242.376V251H275.054V243.048C275.054 241.853 274.793 240.967 274.27 240.388C273.747 239.791 272.991 239.492 272.002 239.492C270.901 239.492 270.023 239.837 269.37 240.528C268.717 241.2 268.39 242.208 268.39 243.552V251H264.022V230.224H268.39V237.504C268.969 236.925 269.669 236.487 270.49 236.188C271.311 235.871 272.207 235.712 273.178 235.712ZM283.381 235.936H287.749V251H283.381V235.936ZM285.565 233.836C284.763 233.836 284.109 233.603 283.605 233.136C283.101 232.669 282.849 232.091 282.849 231.4C282.849 230.709 283.101 230.131 283.605 229.664C284.109 229.197 284.763 228.964 285.565 228.964C286.368 228.964 287.021 229.188 287.525 229.636C288.029 230.084 288.281 230.644 288.281 231.316C288.281 232.044 288.029 232.651 287.525 233.136C287.021 233.603 286.368 233.836 285.565 233.836ZM300.959 235.712C302.826 235.712 304.328 236.272 305.467 237.392C306.624 238.512 307.203 240.173 307.203 242.376V251H302.835V243.048C302.835 241.853 302.574 240.967 302.051 240.388C301.528 239.791 300.772 239.492 299.783 239.492C298.682 239.492 297.804 239.837 297.151 240.528C296.498 241.2 296.171 242.208 296.171 243.552V251H291.803V235.936H295.975V237.7C296.554 237.065 297.272 236.58 298.131 236.244C298.99 235.889 299.932 235.712 300.959 235.712ZM326.867 235.936V248.48C326.867 251.243 326.148 253.296 324.711 254.64C323.273 255.984 321.173 256.656 318.411 256.656C316.955 256.656 315.573 256.479 314.267 256.124C312.96 255.769 311.877 255.256 311.019 254.584L312.755 251.448C313.389 251.971 314.192 252.381 315.163 252.68C316.133 252.997 317.104 253.156 318.075 253.156C319.587 253.156 320.697 252.811 321.407 252.12C322.135 251.448 322.499 250.421 322.499 249.04V248.396C321.36 249.647 319.773 250.272 317.739 250.272C316.357 250.272 315.088 249.973 313.931 249.376C312.792 248.76 311.887 247.901 311.215 246.8C310.543 245.699 310.207 244.429 310.207 242.992C310.207 241.555 310.543 240.285 311.215 239.184C311.887 238.083 312.792 237.233 313.931 236.636C315.088 236.02 316.357 235.712 317.739 235.712C319.923 235.712 321.584 236.431 322.723 237.868V235.936H326.867ZM318.607 246.688C319.764 246.688 320.707 246.352 321.435 245.68C322.181 244.989 322.555 244.093 322.555 242.992C322.555 241.891 322.181 241.004 321.435 240.332C320.707 239.641 319.764 239.296 318.607 239.296C317.449 239.296 316.497 239.641 315.751 240.332C315.004 241.004 314.631 241.891 314.631 242.992C314.631 244.093 315.004 244.989 315.751 245.68C316.497 246.352 317.449 246.688 318.607 246.688ZM336 251.224C334.749 251.224 333.527 251.075 332.332 250.776C331.137 250.459 330.185 250.067 329.476 249.6L330.932 246.464C331.604 246.893 332.416 247.248 333.368 247.528C334.32 247.789 335.253 247.92 336.168 247.92C338.016 247.92 338.94 247.463 338.94 246.548C338.94 246.119 338.688 245.811 338.184 245.624C337.68 245.437 336.905 245.279 335.86 245.148C334.628 244.961 333.611 244.747 332.808 244.504C332.005 244.261 331.305 243.832 330.708 243.216C330.129 242.6 329.84 241.723 329.84 240.584C329.84 239.632 330.111 238.792 330.652 238.064C331.212 237.317 332.015 236.739 333.06 236.328C334.124 235.917 335.375 235.712 336.812 235.712C337.876 235.712 338.931 235.833 339.976 236.076C341.04 236.3 341.917 236.617 342.608 237.028L341.152 240.136C339.827 239.389 338.38 239.016 336.812 239.016C335.879 239.016 335.179 239.147 334.712 239.408C334.245 239.669 334.012 240.005 334.012 240.416C334.012 240.883 334.264 241.209 334.768 241.396C335.272 241.583 336.075 241.76 337.176 241.928C338.408 242.133 339.416 242.357 340.2 242.6C340.984 242.824 341.665 243.244 342.244 243.86C342.823 244.476 343.112 245.335 343.112 246.436C343.112 247.369 342.832 248.2 342.272 248.928C341.712 249.656 340.891 250.225 339.808 250.636C338.744 251.028 337.475 251.224 336 251.224ZM363.453 250.272C363.023 250.589 362.491 250.832 361.857 251C361.241 251.149 360.587 251.224 359.897 251.224C358.105 251.224 356.714 250.767 355.725 249.852C354.754 248.937 354.269 247.593 354.269 245.82V239.632H351.945V236.272H354.269V232.604H358.637V236.272H362.389V239.632H358.637V245.764C358.637 246.399 358.795 246.893 359.113 247.248C359.449 247.584 359.915 247.752 360.513 247.752C361.203 247.752 361.791 247.565 362.277 247.192L363.453 250.272ZM375.061 235.712C376.927 235.712 378.43 236.272 379.569 237.392C380.726 238.512 381.305 240.173 381.305 242.376V251H376.937V243.048C376.937 241.853 376.675 240.967 376.153 240.388C375.63 239.791 374.874 239.492 373.885 239.492C372.783 239.492 371.906 239.837 371.253 240.528C370.599 241.2 370.273 242.208 370.273 243.552V251H365.905V230.224H370.273V237.504C370.851 236.925 371.551 236.487 372.373 236.188C373.194 235.871 374.09 235.712 375.061 235.712ZM391.34 235.712C393.673 235.712 395.465 236.272 396.716 237.392C397.967 238.493 398.592 240.164 398.592 242.404V251H394.504V249.124C393.683 250.524 392.152 251.224 389.912 251.224C388.755 251.224 387.747 251.028 386.888 250.636C386.048 250.244 385.404 249.703 384.956 249.012C384.508 248.321 384.284 247.537 384.284 246.66C384.284 245.26 384.807 244.159 385.852 243.356C386.916 242.553 388.549 242.152 390.752 242.152H394.224C394.224 241.2 393.935 240.472 393.356 239.968C392.777 239.445 391.909 239.184 390.752 239.184C389.949 239.184 389.156 239.315 388.372 239.576C387.607 239.819 386.953 240.155 386.412 240.584L384.844 237.532C385.665 236.953 386.645 236.505 387.784 236.188C388.941 235.871 390.127 235.712 391.34 235.712ZM391.004 248.284C391.751 248.284 392.413 248.116 392.992 247.78C393.571 247.425 393.981 246.912 394.224 246.24V244.7H391.228C389.436 244.7 388.54 245.288 388.54 246.464C388.54 247.024 388.755 247.472 389.184 247.808C389.632 248.125 390.239 248.284 391.004 248.284ZM412.261 250.272C411.832 250.589 411.3 250.832 410.665 251C410.049 251.149 409.396 251.224 408.705 251.224C406.913 251.224 405.523 250.767 404.533 249.852C403.563 248.937 403.077 247.593 403.077 245.82V239.632H400.753V236.272H403.077V232.604H407.445V236.272H411.197V239.632H407.445V245.764C407.445 246.399 407.604 246.893 407.921 247.248C408.257 247.584 408.724 247.752 409.321 247.752C410.012 247.752 410.6 247.565 411.085 247.192L412.261 250.272ZM437.595 235.936L430.791 251.924C430.1 253.66 429.242 254.883 428.215 255.592C427.207 256.301 425.984 256.656 424.547 256.656C423.763 256.656 422.988 256.535 422.223 256.292C421.458 256.049 420.832 255.713 420.347 255.284L421.943 252.176C422.279 252.475 422.662 252.708 423.091 252.876C423.539 253.044 423.978 253.128 424.407 253.128C425.004 253.128 425.49 252.979 425.863 252.68C426.236 252.4 426.572 251.924 426.871 251.252L426.927 251.112L420.403 235.936H424.911L429.139 246.156L433.395 235.936H437.595ZM446.135 251.224C444.549 251.224 443.121 250.897 441.851 250.244C440.601 249.572 439.621 248.648 438.911 247.472C438.202 246.296 437.847 244.961 437.847 243.468C437.847 241.975 438.202 240.64 438.911 239.464C439.621 238.288 440.601 237.373 441.851 236.72C443.121 236.048 444.549 235.712 446.135 235.712C447.722 235.712 449.141 236.048 450.391 236.72C451.642 237.373 452.622 238.288 453.331 239.464C454.041 240.64 454.395 241.975 454.395 243.468C454.395 244.961 454.041 246.296 453.331 247.472C452.622 248.648 451.642 249.572 450.391 250.244C449.141 250.897 447.722 251.224 446.135 251.224ZM446.135 247.64C447.255 247.64 448.17 247.267 448.879 246.52C449.607 245.755 449.971 244.737 449.971 243.468C449.971 242.199 449.607 241.191 448.879 240.444C448.17 239.679 447.255 239.296 446.135 239.296C445.015 239.296 444.091 239.679 443.363 240.444C442.635 241.191 442.271 242.199 442.271 243.468C442.271 244.737 442.635 245.755 443.363 246.52C444.091 247.267 445.015 247.64 446.135 247.64ZM472.491 235.936V251H468.347V249.208C467.768 249.861 467.077 250.365 466.275 250.72C465.472 251.056 464.604 251.224 463.671 251.224C461.692 251.224 460.124 250.655 458.967 249.516C457.809 248.377 457.231 246.688 457.231 244.448V235.936H461.599V243.804C461.599 246.231 462.616 247.444 464.651 247.444C465.696 247.444 466.536 247.108 467.171 246.436C467.805 245.745 468.123 244.728 468.123 243.384V235.936H472.491ZM491.747 251.224C490.142 251.224 488.695 250.897 487.407 250.244C486.138 249.572 485.139 248.648 484.411 247.472C483.702 246.296 483.347 244.961 483.347 243.468C483.347 241.975 483.702 240.64 484.411 239.464C485.139 238.288 486.138 237.373 487.407 236.72C488.695 236.048 490.142 235.712 491.747 235.712C493.334 235.712 494.715 236.048 495.891 236.72C497.086 237.373 497.954 238.316 498.495 239.548L495.107 241.368C494.323 239.987 493.194 239.296 491.719 239.296C490.581 239.296 489.638 239.669 488.891 240.416C488.145 241.163 487.771 242.18 487.771 243.468C487.771 244.756 488.145 245.773 488.891 246.52C489.638 247.267 490.581 247.64 491.719 247.64C493.213 247.64 494.342 246.949 495.107 245.568L498.495 247.416C497.954 248.611 497.086 249.544 495.891 250.216C494.715 250.888 493.334 251.224 491.747 251.224ZM507.086 235.712C509.419 235.712 511.211 236.272 512.462 237.392C513.713 238.493 514.338 240.164 514.338 242.404V251H510.25V249.124C509.429 250.524 507.898 251.224 505.658 251.224C504.501 251.224 503.493 251.028 502.634 250.636C501.794 250.244 501.15 249.703 500.702 249.012C500.254 248.321 500.03 247.537 500.03 246.66C500.03 245.26 500.553 244.159 501.598 243.356C502.662 242.553 504.295 242.152 506.498 242.152H509.97C509.97 241.2 509.681 240.472 509.102 239.968C508.523 239.445 507.655 239.184 506.498 239.184C505.695 239.184 504.902 239.315 504.118 239.576C503.353 239.819 502.699 240.155 502.158 240.584L500.59 237.532C501.411 236.953 502.391 236.505 503.53 236.188C504.687 235.871 505.873 235.712 507.086 235.712ZM506.75 248.284C507.497 248.284 508.159 248.116 508.738 247.78C509.317 247.425 509.727 246.912 509.97 246.24V244.7H506.974C505.182 244.7 504.286 245.288 504.286 246.464C504.286 247.024 504.501 247.472 504.93 247.808C505.378 248.125 505.985 248.284 506.75 248.284ZM527.447 235.712C529.314 235.712 530.817 236.272 531.955 237.392C533.113 238.512 533.691 240.173 533.691 242.376V251H529.323V243.048C529.323 241.853 529.062 240.967 528.539 240.388C528.017 239.791 527.261 239.492 526.271 239.492C525.17 239.492 524.293 239.837 523.639 240.528C522.986 241.2 522.659 242.208 522.659 243.552V251H518.291V235.936H522.463V237.7C523.042 237.065 523.761 236.58 524.619 236.244C525.478 235.889 526.421 235.712 527.447 235.712ZM554.736 235.712C556.603 235.712 558.106 236.272 559.244 237.392C560.402 238.512 560.98 240.173 560.98 242.376V251H556.612V243.048C556.612 241.853 556.351 240.967 555.828 240.388C555.306 239.791 554.55 239.492 553.56 239.492C552.459 239.492 551.582 239.837 550.928 240.528C550.275 241.2 549.948 242.208 549.948 243.552V251H545.58V230.224H549.948V237.504C550.527 236.925 551.227 236.487 552.048 236.188C552.87 235.871 553.766 235.712 554.736 235.712ZM579.86 243.524C579.86 243.58 579.832 243.972 579.776 244.7H568.38C568.585 245.633 569.071 246.371 569.836 246.912C570.601 247.453 571.553 247.724 572.692 247.724C573.476 247.724 574.167 247.612 574.764 247.388C575.38 247.145 575.949 246.772 576.472 246.268L578.796 248.788C577.377 250.412 575.305 251.224 572.58 251.224C570.881 251.224 569.379 250.897 568.072 250.244C566.765 249.572 565.757 248.648 565.048 247.472C564.339 246.296 563.984 244.961 563.984 243.468C563.984 241.993 564.329 240.668 565.02 239.492C565.729 238.297 566.691 237.373 567.904 236.72C569.136 236.048 570.508 235.712 572.02 235.712C573.495 235.712 574.829 236.029 576.024 236.664C577.219 237.299 578.152 238.213 578.824 239.408C579.515 240.584 579.86 241.956 579.86 243.524ZM572.048 239.016C571.059 239.016 570.228 239.296 569.556 239.856C568.884 240.416 568.473 241.181 568.324 242.152H575.744C575.595 241.2 575.184 240.444 574.512 239.884C573.84 239.305 573.019 239.016 572.048 239.016ZM588.434 235.712C590.767 235.712 592.559 236.272 593.81 237.392C595.06 238.493 595.686 240.164 595.686 242.404V251H591.598V249.124C590.776 250.524 589.246 251.224 587.006 251.224C585.848 251.224 584.84 251.028 583.982 250.636C583.142 250.244 582.498 249.703 582.05 249.012C581.602 248.321 581.378 247.537 581.378 246.66C581.378 245.26 581.9 244.159 582.946 243.356C584.01 242.553 585.643 242.152 587.846 242.152H591.318C591.318 241.2 591.028 240.472 590.45 239.968C589.871 239.445 589.003 239.184 587.846 239.184C587.043 239.184 586.25 239.315 585.466 239.576C584.7 239.819 584.047 240.155 583.506 240.584L581.938 237.532C582.759 236.953 583.739 236.505 584.878 236.188C586.035 235.871 587.22 235.712 588.434 235.712ZM588.098 248.284C588.844 248.284 589.507 248.116 590.086 247.78C590.664 247.425 591.075 246.912 591.318 246.24V244.7H588.322C586.53 244.7 585.634 245.288 585.634 246.464C585.634 247.024 585.848 247.472 586.278 247.808C586.726 248.125 587.332 248.284 588.098 248.284ZM603.811 237.924C604.334 237.196 605.034 236.645 605.911 236.272C606.807 235.899 607.834 235.712 608.991 235.712V239.744C608.506 239.707 608.179 239.688 608.011 239.688C606.76 239.688 605.78 240.043 605.071 240.752C604.362 241.443 604.007 242.488 604.007 243.888V251H599.639V235.936H603.811V237.924ZM294.393 269.712C296.726 269.712 298.518 270.272 299.769 271.392C301.019 272.493 301.645 274.164 301.645 276.404V285H297.557V283.124C296.735 284.524 295.205 285.224 292.965 285.224C291.807 285.224 290.799 285.028 289.941 284.636C289.101 284.244 288.457 283.703 288.009 283.012C287.561 282.321 287.337 281.537 287.337 280.66C287.337 279.26 287.859 278.159 288.905 277.356C289.969 276.553 291.602 276.152 293.805 276.152H297.277C297.277 275.2 296.987 274.472 296.409 273.968C295.83 273.445 294.962 273.184 293.805 273.184C293.002 273.184 292.209 273.315 291.425 273.576C290.659 273.819 290.006 274.155 289.465 274.584L287.897 271.532C288.718 270.953 289.698 270.505 290.837 270.188C291.994 269.871 293.179 269.712 294.393 269.712ZM294.057 282.284C294.803 282.284 295.466 282.116 296.045 281.78C296.623 281.425 297.034 280.912 297.277 280.24V278.7H294.281C292.489 278.7 291.593 279.288 291.593 280.464C291.593 281.024 291.807 281.472 292.237 281.808C292.685 282.125 293.291 282.284 294.057 282.284ZM309.77 271.924C310.293 271.196 310.993 270.645 311.87 270.272C312.766 269.899 313.793 269.712 314.95 269.712V273.744C314.465 273.707 314.138 273.688 313.97 273.688C312.719 273.688 311.739 274.043 311.03 274.752C310.321 275.443 309.966 276.488 309.966 277.888V285H305.598V269.936H309.77V271.924ZM324.579 285.224C322.992 285.224 321.564 284.897 320.295 284.244C319.044 283.572 318.064 282.648 317.355 281.472C316.645 280.296 316.291 278.961 316.291 277.468C316.291 275.975 316.645 274.64 317.355 273.464C318.064 272.288 319.044 271.373 320.295 270.72C321.564 270.048 322.992 269.712 324.579 269.712C326.165 269.712 327.584 270.048 328.835 270.72C330.085 271.373 331.065 272.288 331.775 273.464C332.484 274.64 332.839 275.975 332.839 277.468C332.839 278.961 332.484 280.296 331.775 281.472C331.065 282.648 330.085 283.572 328.835 284.244C327.584 284.897 326.165 285.224 324.579 285.224ZM324.579 281.64C325.699 281.64 326.613 281.267 327.323 280.52C328.051 279.755 328.415 278.737 328.415 277.468C328.415 276.199 328.051 275.191 327.323 274.444C326.613 273.679 325.699 273.296 324.579 273.296C323.459 273.296 322.535 273.679 321.807 274.444C321.079 275.191 320.715 276.199 320.715 277.468C320.715 278.737 321.079 279.755 321.807 280.52C322.535 281.267 323.459 281.64 324.579 281.64ZM350.934 269.936V285H346.79V283.208C346.212 283.861 345.521 284.365 344.718 284.72C343.916 285.056 343.048 285.224 342.114 285.224C340.136 285.224 338.568 284.655 337.41 283.516C336.253 282.377 335.674 280.688 335.674 278.448V269.936H340.042V277.804C340.042 280.231 341.06 281.444 343.094 281.444C344.14 281.444 344.98 281.108 345.614 280.436C346.249 279.745 346.566 278.728 346.566 277.384V269.936H350.934ZM364.137 269.712C366.004 269.712 367.506 270.272 368.645 271.392C369.802 272.512 370.381 274.173 370.381 276.376V285H366.013V277.048C366.013 275.853 365.752 274.967 365.229 274.388C364.706 273.791 363.95 273.492 362.961 273.492C361.86 273.492 360.982 273.837 360.329 274.528C359.676 275.2 359.349 276.208 359.349 277.552V285H354.981V269.936H359.153V271.7C359.732 271.065 360.45 270.58 361.309 270.244C362.168 269.889 363.11 269.712 364.137 269.712ZM389.848 264.224V285H385.676V283.264C384.594 284.571 383.026 285.224 380.972 285.224C379.554 285.224 378.266 284.907 377.108 284.272C375.97 283.637 375.074 282.732 374.42 281.556C373.767 280.38 373.44 279.017 373.44 277.468C373.44 275.919 373.767 274.556 374.42 273.38C375.074 272.204 375.97 271.299 377.108 270.664C378.266 270.029 379.554 269.712 380.972 269.712C382.895 269.712 384.398 270.319 385.48 271.532V264.224H389.848ZM381.728 281.64C382.83 281.64 383.744 281.267 384.472 280.52C385.2 279.755 385.564 278.737 385.564 277.468C385.564 276.199 385.2 275.191 384.472 274.444C383.744 273.679 382.83 273.296 381.728 273.296C380.608 273.296 379.684 273.679 378.956 274.444C378.228 275.191 377.864 276.199 377.864 277.468C377.864 278.737 378.228 279.755 378.956 280.52C379.684 281.267 380.608 281.64 381.728 281.64ZM416.773 269.936L409.969 285.924C409.278 287.66 408.419 288.883 407.393 289.592C406.385 290.301 405.162 290.656 403.725 290.656C402.941 290.656 402.166 290.535 401.401 290.292C400.635 290.049 400.01 289.713 399.525 289.284L401.121 286.176C401.457 286.475 401.839 286.708 402.269 286.876C402.717 287.044 403.155 287.128 403.585 287.128C404.182 287.128 404.667 286.979 405.041 286.68C405.414 286.4 405.75 285.924 406.049 285.252L406.105 285.112L399.581 269.936H404.089L408.317 280.156L412.573 269.936H416.773ZM425.313 285.224C423.726 285.224 422.298 284.897 421.029 284.244C419.778 283.572 418.798 282.648 418.089 281.472C417.38 280.296 417.025 278.961 417.025 277.468C417.025 275.975 417.38 274.64 418.089 273.464C418.798 272.288 419.778 271.373 421.029 270.72C422.298 270.048 423.726 269.712 425.313 269.712C426.9 269.712 428.318 270.048 429.569 270.72C430.82 271.373 431.8 272.288 432.509 273.464C433.218 274.64 433.573 275.975 433.573 277.468C433.573 278.961 433.218 280.296 432.509 281.472C431.8 282.648 430.82 283.572 429.569 284.244C428.318 284.897 426.9 285.224 425.313 285.224ZM425.313 281.64C426.433 281.64 427.348 281.267 428.057 280.52C428.785 279.755 429.149 278.737 429.149 277.468C429.149 276.199 428.785 275.191 428.057 274.444C427.348 273.679 426.433 273.296 425.313 273.296C424.193 273.296 423.269 273.679 422.541 274.444C421.813 275.191 421.449 276.199 421.449 277.468C421.449 278.737 421.813 279.755 422.541 280.52C423.269 281.267 424.193 281.64 425.313 281.64ZM451.669 269.936V285H447.525V283.208C446.946 283.861 446.255 284.365 445.453 284.72C444.65 285.056 443.782 285.224 442.849 285.224C440.87 285.224 439.302 284.655 438.145 283.516C436.987 282.377 436.409 280.688 436.409 278.448V269.936H440.777V277.804C440.777 280.231 441.794 281.444 443.829 281.444C444.874 281.444 445.714 281.108 446.349 280.436C446.983 279.745 447.301 278.728 447.301 277.384V269.936H451.669Z" fill="#246482"/>
</svg>
