<svg width="204" height="76" viewBox="0 0 204 76" fill="none" xmlns="http://www.w3.org/2000/svg">
<path d="M0.103115 44.589C0.0417476 46.5092 0.456116 48.4147 1.30933 50.136C2.16254 51.8572 3.42812 53.3408 4.9934 54.4547C5.77479 54.9862 8.11894 56.4692 10.6279 56.4692C10.9844 56.4688 11.3401 56.4368 11.691 56.3736C11.4488 58.7004 12.0116 61.04 13.2856 63.002C15.4597 66.5581 18.4577 69.0724 21.5088 69.9122C22.8948 70.2905 24.3245 70.4852 25.7612 70.4916C28.0601 70.5563 30.3235 69.9144 32.2462 68.6525C33.7717 67.5893 35.1059 64.8944 35.0102 63.0924V57.3782C35.0315 57.2801 35.0315 57.1786 35.0102 57.0805V30.1999V6.70522C35.0102 6.70522 35.0102 6.67864 35.0102 6.66801C34.9698 5.53721 34.6359 4.43639 34.0413 3.47368C33.4468 2.51097 32.6119 1.71952 31.6189 1.17707C29.3651 -0.119918 26.8349 -0.109287 25.0914 0.113966C22.4173 0.415254 19.9358 1.65224 18.0856 3.60627C17.2511 4.52176 16.6375 5.61635 16.2919 6.80594C15.9464 7.99554 15.8781 9.24851 16.0922 10.4686C14.3308 10.2066 12.533 10.3458 10.833 10.876C9.13293 11.4061 7.57464 12.3135 6.27445 13.5304C4.85909 14.7846 3.80009 16.3904 3.20458 18.1853C2.60907 19.9802 2.49818 21.9006 2.88314 23.7521C3.07873 24.7329 3.47297 25.6633 4.04156 26.486C4.61016 27.3088 5.3411 28.0064 6.1894 28.5361C5.58804 29.4399 5.19414 30.4655 5.03593 31.5394C4.84543 32.6959 4.91811 33.8805 5.24856 35.0051C3.67503 36.0626 2.38371 37.4885 1.48694 39.1588C0.590175 40.8291 0.11512 42.6932 0.103115 44.589Z" fill="url(#paint0_linear_353_37)"/>
<path d="M67.8288 39.7102C68.1636 38.5865 68.2382 37.4013 68.0468 36.2445C67.8881 35.1707 67.4942 34.1452 66.8933 33.2412C67.741 32.7108 68.4715 32.0129 69.04 31.1903C69.6085 30.3677 70.0031 29.4377 70.1996 28.4572C70.5829 26.606 70.4707 24.6864 69.8743 22.8925C69.2779 21.0986 68.2184 19.4939 66.803 18.2408C65.5044 17.023 63.9471 16.115 62.2478 15.5848C60.5484 15.0545 58.7511 14.9158 56.9905 15.179C57.2095 13.9584 57.1461 12.7039 56.8052 11.5117C56.4643 10.3194 55.8549 9.22099 55.0237 8.3007C53.1721 6.34854 50.6913 5.11191 48.0179 4.80839C46.285 4.56919 43.7654 4.55325 41.4904 5.8715C40.4981 6.41404 39.6636 7.20467 39.0683 8.16615C38.4729 9.12763 38.1371 10.2271 38.0937 11.3571V34.8784V61.759C38.0671 61.8565 38.0671 61.9593 38.0937 62.0567V67.7496C37.9981 69.5463 39.3269 72.236 40.8525 73.3097C42.7757 74.5704 45.0388 75.2122 47.3375 75.1489C48.7741 75.142 50.2037 74.9472 51.5899 74.5695C54.641 73.7403 57.639 71.2313 59.813 67.6593C61.0879 65.6976 61.6508 63.3577 61.4077 61.0308C61.7579 61.0989 62.114 61.1327 62.4708 61.1318C64.9797 61.1318 67.3239 59.6647 68.1053 59.1172C69.6413 57.9969 70.8869 56.5253 71.7383 54.8253C72.5896 53.1254 73.0219 51.2465 72.999 49.3454C72.9761 47.4443 72.4987 45.5763 71.6067 43.8974C70.7147 42.2185 69.4339 40.7773 67.8714 39.6942L67.8288 39.7102Z" fill="url(#paint1_linear_353_37)"/>
<path d="M50.0112 16.2151C45.9342 18.6018 44.313 23.423 46.3967 26.979C50.4737 24.5924 52.0949 19.7765 50.0112 16.2151Z" fill="white"/>
<path d="M61.0145 23.183C59.8078 31.6188 52.8551 37.6041 45.4878 36.5516C46.6944 28.0946 53.6471 22.1199 61.0145 23.183Z" fill="white"/>
<path d="M23.1687 16.2151C27.2458 18.6018 28.867 23.423 26.7833 26.979C22.7063 24.5924 21.0904 19.7765 23.1687 16.2151Z" fill="white"/>
<path d="M12.1602 22.5883C13.3668 31.0241 20.3195 37.0093 27.6868 35.9569C26.4802 27.5211 19.5275 21.5358 12.1602 22.5883Z" fill="white"/>
<path d="M58.4688 49.9657C55.4379 49.9657 53.9067 48.174 52.4261 46.4455C50.9454 44.717 49.5787 43.1307 46.7756 43.1307C43.9726 43.1307 42.5805 44.7117 41.1252 46.4455C39.6699 48.1793 38.1134 49.9657 35.0794 49.9657C32.0453 49.9657 30.5173 48.174 29.0366 46.4455C27.556 44.717 26.1893 43.1307 23.3862 43.1307C20.5832 43.1307 19.1943 44.7117 17.7358 46.4455C16.2774 48.1793 14.724 49.9657 11.6931 49.9657C8.66228 49.9657 7.13103 48.174 5.65041 46.4455C4.16979 44.717 2.80306 43.1307 0 43.1307V41.9924C3.03085 41.9924 4.56209 43.7789 6.04271 45.5127C7.52333 47.2465 8.89006 48.8274 11.6931 48.8274C14.4962 48.8274 15.8851 47.2149 17.3435 45.5127C18.802 43.8105 20.3554 41.9924 23.3862 41.9924C26.4171 41.9924 27.9483 43.7789 29.429 45.5127C30.9096 47.2465 32.2763 48.8274 35.0794 48.8274C37.8824 48.8274 39.2713 47.2149 40.7298 45.5127C42.1882 43.8105 43.7416 41.9924 46.7756 41.9924C49.8096 41.9924 51.3377 43.7789 52.8184 45.5127C54.299 47.2465 55.6657 48.8274 58.4688 48.8274C61.2718 48.8274 62.6639 47.2149 64.1223 45.5127C65.5808 43.8105 67.1342 41.9924 70.165 41.9924V43.1307C67.3493 43.1307 65.9731 44.7117 64.5146 46.4455C63.0562 48.1793 61.5028 49.9657 58.4688 49.9657Z" fill="white"/>
<path d="M60.5947 59.5212C57.5639 59.5212 56.0326 57.7325 54.552 56.0069C53.0714 54.2814 51.7047 52.6979 48.9016 52.6979C46.0986 52.6979 44.7065 54.3024 43.2512 56.0069C41.7959 57.7115 40.2393 59.5212 37.2053 59.5212C34.1713 59.5212 32.6432 57.7325 31.1626 56.0069C29.682 54.2814 28.3153 52.6979 25.5122 52.6979C22.7092 52.6979 21.3203 54.3024 19.8618 56.0069C18.4033 57.7115 16.8499 58.3849 13.8191 58.3849C10.7883 58.3849 9.45369 57.5395 7.97306 55.8139C6.49244 54.0884 5.72636 52.3589 2.92331 52.3589L2.12598 51.5615C5.15682 51.5615 7.02399 53.02 8.50462 54.7508C9.98524 56.4817 11.016 57.4086 13.8191 57.4086C16.6222 57.4086 18.011 56.775 19.4695 55.0758C20.928 53.3765 22.4814 51.5615 25.5122 51.5615C28.5431 51.5615 30.0743 53.345 31.5549 55.0758C33.0355 56.8066 34.4023 58.3849 37.2053 58.3849C40.0084 58.3849 41.3973 56.775 42.8557 55.0758C44.3142 53.3765 45.8676 51.5615 48.9016 51.5615C51.9356 51.5615 53.4637 53.345 54.9443 55.0758C56.4249 56.8066 57.7917 58.3849 60.5947 58.3849C63.3978 58.3849 64.7898 56.775 66.2483 55.0758C67.7068 53.3765 69.2602 51.5615 72.291 51.5615V52.6979C69.4753 52.6979 68.0991 54.3024 66.6406 56.0069C65.1821 57.7115 63.6287 59.5212 60.5947 59.5212Z" fill="white"/>
<path d="M53.1541 69.1027C51.0876 69.1027 50.0436 67.3162 49.0341 65.5824C48.0246 63.8486 47.0927 62.2677 45.1815 62.2677C43.2704 62.2677 42.3212 63.8803 41.329 65.5824C40.3367 67.2846 39.2754 69.1027 37.2068 69.1027C35.1382 69.1027 34.0963 67.3162 33.0868 65.5824C32.0773 63.8486 31.1454 62.2677 29.2342 62.2677C27.323 62.2677 26.3761 63.8803 25.3817 65.5824C24.3873 67.2846 23.3281 69.1027 21.2616 69.1027C19.1952 69.1027 18.1511 67.3162 17.1416 65.5824C16.1321 63.8486 15.2002 62.2677 13.2891 62.2677V61.1294C15.3555 61.1294 16.3996 62.9211 17.4091 64.6497C18.4186 66.3782 19.3505 67.9644 21.2616 67.9644C23.1728 67.9644 24.1198 66.3571 25.1142 64.6497C26.1086 62.9422 27.1677 61.1294 29.2342 61.1294C31.3007 61.1294 32.3447 62.9211 33.3543 64.6497C34.3638 66.3782 35.2956 67.9644 37.2068 67.9644C39.118 67.9644 40.0649 66.3571 41.0594 64.6497C42.0538 62.9422 43.1129 61.1294 45.1815 61.1294C47.2502 61.1294 48.2921 62.9211 49.3016 64.6497C50.3111 66.3782 51.2429 67.9644 53.1541 67.9644C55.0653 67.9644 56.0144 66.3571 57.0088 64.6497C58.0032 62.9422 59.0624 61.1294 61.1289 61.1294V62.2677C59.2091 62.2677 58.2707 63.8803 57.2763 65.5824C56.2819 67.2846 55.2228 69.1027 53.1541 69.1027Z" fill="white"/>
<path d="M58.4688 50.4848C55.4379 50.4848 53.9067 48.6961 52.4261 46.9706C50.9454 45.245 49.5787 43.6615 46.7756 43.6615C43.9726 43.6615 42.5805 45.2661 41.1252 46.9706C39.6699 48.6751 38.1134 50.4848 35.0794 50.4848C32.0453 50.4848 30.5173 48.6961 29.0366 46.9706C27.556 45.245 26.1893 43.6615 23.3862 43.6615C20.5832 43.6615 19.1943 45.2661 17.7358 46.9706C16.2774 48.6751 14.724 50.4848 11.6931 50.4848C8.66228 50.4848 7.13103 48.6961 5.65041 46.9706C4.16979 45.245 2.80306 43.6615 0 43.6615V42.5251C3.03085 42.5251 4.56209 44.3086 6.04271 46.0394C7.52333 47.7702 8.89006 49.3485 11.6931 49.3485C14.4962 49.3485 15.8851 47.7387 17.3435 46.0394C18.802 44.3401 20.3554 42.5251 23.3862 42.5251C26.4171 42.5251 27.9483 44.3086 29.429 46.0394C30.9096 47.7702 32.2763 49.3485 35.0794 49.3485C37.8824 49.3485 39.2713 47.7387 40.7298 46.0394C42.1882 44.3401 43.7416 42.5251 46.7756 42.5251C49.8096 42.5251 51.3377 44.3086 52.8184 46.0394C54.299 47.7702 55.6657 49.3485 58.4688 49.3485C61.2718 49.3485 62.6639 47.7387 64.1223 46.0394C65.5808 44.3401 67.1342 42.5251 70.165 42.5251V43.6615C67.3493 43.6615 65.9731 45.2661 64.5146 46.9706C63.0562 48.6751 61.5028 50.4848 58.4688 50.4848Z" fill="white"/>
<path d="M53.2427 69.6344C51.1992 69.6344 50.1668 67.848 49.1685 66.1142C48.1702 64.3804 47.2487 62.7994 45.3587 62.7994C43.4688 62.7994 42.5302 64.412 41.549 66.1142C40.5678 67.8163 39.5183 69.6344 37.4726 69.6344C35.4269 69.6344 34.3967 67.848 33.3984 66.1142C32.4001 64.3804 31.4785 62.7994 29.5886 62.7994C27.6987 62.7994 26.7622 64.412 25.7789 66.1142C24.7955 67.8163 23.7481 69.6344 21.7046 69.6344C19.6611 69.6344 18.6287 67.848 17.6304 66.1142C16.6321 64.3804 15.179 62.7242 13.2891 62.7242V61.6611C15.3326 61.6611 16.8966 63.4529 17.8949 65.1814C18.8932 66.9099 19.8147 68.4961 21.7046 68.4961C23.5946 68.4961 24.531 66.8888 25.5144 65.1814C26.4977 63.474 27.5451 61.6611 29.5886 61.6611C31.6321 61.6611 32.6646 63.4529 33.6629 65.1814C34.6612 66.9099 35.5827 68.4961 37.4726 68.4961C39.3625 68.4961 40.299 66.8888 41.2824 65.1814C42.2657 63.474 43.3131 61.6611 45.3587 61.6611C47.4044 61.6611 48.4347 63.4529 49.433 65.1814C50.4313 66.9099 51.3528 68.4961 53.2427 68.4961C55.1327 68.4961 56.0712 66.8888 57.0546 65.1814C58.038 63.474 59.0853 61.6611 61.1289 61.6611V62.7994C59.2304 62.7994 58.3025 64.412 57.3191 66.1142C56.3357 67.8163 55.2884 69.6344 53.2427 69.6344Z" fill="white"/>
<path d="M92.764 48.336C91.2147 48.336 89.712 48.1307 88.256 47.72C86.8187 47.2907 85.6613 46.74 84.784 46.068L86.324 42.652C87.164 43.268 88.1627 43.7627 89.32 44.136C90.4773 44.5093 91.6347 44.696 92.792 44.696C94.08 44.696 95.032 44.5093 95.648 44.136C96.264 43.744 96.572 43.2307 96.572 42.596C96.572 42.1293 96.3853 41.7467 96.012 41.448C95.6573 41.1307 95.1907 40.8787 94.612 40.692C94.052 40.5053 93.2867 40.3 92.316 40.076C90.8227 39.7213 89.6 39.3667 88.648 39.012C87.696 38.6573 86.8747 38.088 86.184 37.304C85.512 36.52 85.176 35.4747 85.176 34.168C85.176 33.0293 85.484 32.0027 86.1 31.088C86.716 30.1547 87.64 29.4173 88.872 28.876C90.1227 28.3347 91.644 28.064 93.436 28.064C94.6867 28.064 95.9093 28.2133 97.104 28.512C98.2987 28.8107 99.344 29.24 100.24 29.8L98.84 33.244C97.0293 32.2173 95.2187 31.704 93.408 31.704C92.1387 31.704 91.196 31.9093 90.58 32.32C89.9827 32.7307 89.684 33.272 89.684 33.944C89.684 34.616 90.0293 35.12 90.72 35.456C91.4293 35.7733 92.5027 36.0907 93.94 36.408C95.4333 36.7627 96.656 37.1173 97.608 37.472C98.56 37.8267 99.372 38.3867 100.044 39.152C100.735 39.9173 101.08 40.9533 101.08 42.26C101.08 43.38 100.763 44.4067 100.128 45.34C99.512 46.2547 98.5787 46.9827 97.328 47.524C96.0773 48.0653 94.556 48.336 92.764 48.336ZM113.671 48.336C111.637 48.336 109.798 47.8973 108.155 47.02C106.531 46.1427 105.253 44.9387 104.319 43.408C103.405 41.8587 102.947 40.1227 102.947 38.2C102.947 36.2773 103.405 34.5507 104.319 33.02C105.253 31.4707 106.531 30.2573 108.155 29.38C109.798 28.5027 111.637 28.064 113.671 28.064C115.706 28.064 117.535 28.5027 119.159 29.38C120.783 30.2573 122.062 31.4707 122.995 33.02C123.929 34.5507 124.395 36.2773 124.395 38.2C124.395 40.1227 123.929 41.8587 122.995 43.408C122.062 44.9387 120.783 46.1427 119.159 47.02C117.535 47.8973 115.706 48.336 113.671 48.336ZM113.671 44.472C114.829 44.472 115.874 44.2107 116.807 43.688C117.741 43.1467 118.469 42.4 118.991 41.448C119.533 40.496 119.803 39.4133 119.803 38.2C119.803 36.9867 119.533 35.904 118.991 34.952C118.469 34 117.741 33.2627 116.807 32.74C115.874 32.1987 114.829 31.928 113.671 31.928C112.514 31.928 111.469 32.1987 110.535 32.74C109.602 33.2627 108.865 34 108.323 34.952C107.801 35.904 107.539 36.9867 107.539 38.2C107.539 39.4133 107.801 40.496 108.323 41.448C108.865 42.4 109.602 43.1467 110.535 43.688C111.469 44.2107 112.514 44.472 113.671 44.472ZM127.804 28.4H132.34V44.304H142.168V48H127.804V28.4ZM157.775 43.8H148.675L146.939 48H142.291L151.027 28.4H155.507L164.271 48H159.511L157.775 43.8ZM156.347 40.356L153.239 32.852L150.131 40.356H156.347ZM175.411 48.336C173.414 48.336 171.603 47.9067 169.979 47.048C168.374 46.1707 167.104 44.9667 166.171 43.436C165.256 41.8867 164.799 40.1413 164.799 38.2C164.799 36.2587 165.256 34.5227 166.171 32.992C167.104 31.4427 168.374 30.2387 169.979 29.38C171.603 28.5027 173.423 28.064 175.439 28.064C177.138 28.064 178.668 28.3627 180.031 28.96C181.412 29.5573 182.57 30.416 183.503 31.536L180.591 34.224C179.266 32.6933 177.623 31.928 175.663 31.928C174.45 31.928 173.367 32.1987 172.415 32.74C171.463 33.2627 170.716 34 170.175 34.952C169.652 35.904 169.391 36.9867 169.391 38.2C169.391 39.4133 169.652 40.496 170.175 41.448C170.716 42.4 171.463 43.1467 172.415 43.688C173.367 44.2107 174.45 44.472 175.663 44.472C177.623 44.472 179.266 43.6973 180.591 42.148L183.503 44.836C182.57 45.9747 181.412 46.8427 180.031 47.44C178.65 48.0373 177.11 48.336 175.411 48.336ZM201.742 44.36V48H186.566V28.4H201.378V32.04H191.074V36.296H200.174V39.824H191.074V44.36H201.742Z" fill="white"/>
<defs>
<linearGradient id="paint0_linear_353_37" x1="17.166" y1="79.0815" x2="18.3141" y2="3.6169" gradientUnits="userSpaceOnUse">
<stop stop-color="#BDFCFA"/>
<stop offset="0.49" stop-color="#A5E4EC"/>
<stop offset="1" stop-color="#89C7DB"/>
</linearGradient>
<linearGradient id="paint1_linear_353_37" x1="51.3028" y1="2.62902" x2="56.2835" y2="68.9031" gradientUnits="userSpaceOnUse">
<stop stop-color="#9FE2E2"/>
<stop offset="0.44" stop-color="#87CCD5"/>
<stop offset="1" stop-color="#63ABC2"/>
</linearGradient>
</defs>
</svg>
