<svg width="740" height="515" viewBox="0 0 740 515" fill="none" xmlns="http://www.w3.org/2000/svg">
<rect width="740" height="515" fill="#EAFBFF"/>
<path d="M183.431 231.4V251H179.707L169.935 239.1V251H165.455V231.4H169.207L178.951 243.3V231.4H183.431ZM194.928 251.224C193.341 251.224 191.913 250.897 190.644 250.244C189.393 249.572 188.413 248.648 187.704 247.472C186.995 246.296 186.64 244.961 186.64 243.468C186.64 241.975 186.995 240.64 187.704 239.464C188.413 238.288 189.393 237.373 190.644 236.72C191.913 236.048 193.341 235.712 194.928 235.712C196.515 235.712 197.933 236.048 199.184 236.72C200.435 237.373 201.415 238.288 202.124 239.464C202.833 240.64 203.188 241.975 203.188 243.468C203.188 244.961 202.833 246.296 202.124 247.472C201.415 248.648 200.435 249.572 199.184 250.244C197.933 250.897 196.515 251.224 194.928 251.224ZM194.928 247.64C196.048 247.64 196.963 247.267 197.672 246.52C198.4 245.755 198.764 244.737 198.764 243.468C198.764 242.199 198.4 241.191 197.672 240.444C196.963 239.679 196.048 239.296 194.928 239.296C193.808 239.296 192.884 239.679 192.156 240.444C191.428 241.191 191.064 242.199 191.064 243.468C191.064 244.737 191.428 245.755 192.156 246.52C192.884 247.267 193.808 247.64 194.928 247.64ZM215.824 250.272C215.394 250.589 214.862 250.832 214.228 251C213.612 251.149 212.958 251.224 212.268 251.224C210.476 251.224 209.085 250.767 208.096 249.852C207.125 248.937 206.64 247.593 206.64 245.82V239.632H204.316V236.272H206.64V232.604H211.008V236.272H214.76V239.632H211.008V245.764C211.008 246.399 211.166 246.893 211.484 247.248C211.82 247.584 212.286 247.752 212.884 247.752C213.574 247.752 214.162 247.565 214.648 247.192L215.824 250.272ZM218.276 235.936H222.644V251H218.276V235.936ZM220.46 233.836C219.657 233.836 219.004 233.603 218.5 233.136C217.996 232.669 217.744 232.091 217.744 231.4C217.744 230.709 217.996 230.131 218.5 229.664C219.004 229.197 219.657 228.964 220.46 228.964C221.262 228.964 221.916 229.188 222.42 229.636C222.924 230.084 223.176 230.644 223.176 231.316C223.176 232.044 222.924 232.651 222.42 233.136C221.916 233.603 221.262 233.836 220.46 233.836ZM233.978 251.224C232.372 251.224 230.926 250.897 229.638 250.244C228.368 249.572 227.37 248.648 226.642 247.472C225.932 246.296 225.578 244.961 225.578 243.468C225.578 241.975 225.932 240.64 226.642 239.464C227.37 238.288 228.368 237.373 229.638 236.72C230.926 236.048 232.372 235.712 233.978 235.712C235.564 235.712 236.946 236.048 238.122 236.72C239.316 237.373 240.184 238.316 240.726 239.548L237.338 241.368C236.554 239.987 235.424 239.296 233.95 239.296C232.811 239.296 231.868 239.669 231.122 240.416C230.375 241.163 230.002 242.18 230.002 243.468C230.002 244.756 230.375 245.773 231.122 246.52C231.868 247.267 232.811 247.64 233.95 247.64C235.443 247.64 236.572 246.949 237.338 245.568L240.726 247.416C240.184 248.611 239.316 249.544 238.122 250.216C236.946 250.888 235.564 251.224 233.978 251.224ZM257.805 243.524C257.805 243.58 257.777 243.972 257.721 244.7H246.325C246.531 245.633 247.016 246.371 247.781 246.912C248.547 247.453 249.499 247.724 250.637 247.724C251.421 247.724 252.112 247.612 252.709 247.388C253.325 247.145 253.895 246.772 254.417 246.268L256.741 248.788C255.323 250.412 253.251 251.224 250.525 251.224C248.827 251.224 247.324 250.897 246.017 250.244C244.711 249.572 243.703 248.648 242.993 247.472C242.284 246.296 241.929 244.961 241.929 243.468C241.929 241.993 242.275 240.668 242.965 239.492C243.675 238.297 244.636 237.373 245.849 236.72C247.081 236.048 248.453 235.712 249.965 235.712C251.44 235.712 252.775 236.029 253.969 236.664C255.164 237.299 256.097 238.213 256.769 239.408C257.46 240.584 257.805 241.956 257.805 243.524ZM249.993 239.016C249.004 239.016 248.173 239.296 247.501 239.856C246.829 240.416 246.419 241.181 246.269 242.152H253.689C253.54 241.2 253.129 240.444 252.457 239.884C251.785 239.305 250.964 239.016 249.993 239.016ZM282.363 247.304V251H267.551V248.06L275.111 240.92C275.914 240.155 276.455 239.501 276.735 238.96C277.015 238.4 277.155 237.849 277.155 237.308C277.155 236.524 276.884 235.927 276.343 235.516C275.82 235.087 275.046 234.872 274.019 234.872C273.16 234.872 272.386 235.04 271.695 235.376C271.004 235.693 270.426 236.179 269.959 236.832L266.655 234.704C267.42 233.565 268.475 232.679 269.819 232.044C271.163 231.391 272.703 231.064 274.439 231.064C275.895 231.064 277.164 231.307 278.247 231.792C279.348 232.259 280.198 232.931 280.795 233.808C281.411 234.667 281.719 235.684 281.719 236.86C281.719 237.924 281.495 238.923 281.047 239.856C280.599 240.789 279.731 241.853 278.443 243.048L273.935 247.304H282.363ZM302.804 250.272C302.375 250.589 301.843 250.832 301.208 251C300.592 251.149 299.939 251.224 299.248 251.224C297.456 251.224 296.066 250.767 295.076 249.852C294.106 248.937 293.62 247.593 293.62 245.82V239.632H291.296V236.272H293.62V232.604H297.988V236.272H301.74V239.632H297.988V245.764C297.988 246.399 298.147 246.893 298.464 247.248C298.8 247.584 299.267 247.752 299.864 247.752C300.555 247.752 301.143 247.565 301.628 247.192L302.804 250.272ZM314.412 235.712C316.279 235.712 317.782 236.272 318.92 237.392C320.078 238.512 320.656 240.173 320.656 242.376V251H316.288V243.048C316.288 241.853 316.027 240.967 315.504 240.388C314.982 239.791 314.226 239.492 313.236 239.492C312.135 239.492 311.258 239.837 310.604 240.528C309.951 241.2 309.624 242.208 309.624 243.552V251H305.256V230.224H309.624V237.504C310.203 236.925 310.903 236.487 311.724 236.188C312.546 235.871 313.442 235.712 314.412 235.712ZM324.616 235.936H328.984V251H324.616V235.936ZM326.8 233.836C325.997 233.836 325.344 233.603 324.84 233.136C324.336 232.669 324.084 232.091 324.084 231.4C324.084 230.709 324.336 230.131 324.84 229.664C325.344 229.197 325.997 228.964 326.8 228.964C327.602 228.964 328.256 229.188 328.76 229.636C329.264 230.084 329.516 230.644 329.516 231.316C329.516 232.044 329.264 232.651 328.76 233.136C328.256 233.603 327.602 233.836 326.8 233.836ZM342.193 235.712C344.06 235.712 345.563 236.272 346.701 237.392C347.859 238.512 348.437 240.173 348.437 242.376V251H344.069V243.048C344.069 241.853 343.808 240.967 343.285 240.388C342.763 239.791 342.007 239.492 341.017 239.492C339.916 239.492 339.039 239.837 338.385 240.528C337.732 241.2 337.405 242.208 337.405 243.552V251H333.037V235.936H337.209V237.7C337.788 237.065 338.507 236.58 339.365 236.244C340.224 235.889 341.167 235.712 342.193 235.712ZM368.101 235.936V248.48C368.101 251.243 367.382 253.296 365.945 254.64C364.508 255.984 362.408 256.656 359.645 256.656C358.189 256.656 356.808 256.479 355.501 256.124C354.194 255.769 353.112 255.256 352.253 254.584L353.989 251.448C354.624 251.971 355.426 252.381 356.397 252.68C357.368 252.997 358.338 253.156 359.309 253.156C360.821 253.156 361.932 252.811 362.641 252.12C363.369 251.448 363.733 250.421 363.733 249.04V248.396C362.594 249.647 361.008 250.272 358.973 250.272C357.592 250.272 356.322 249.973 355.165 249.376C354.026 248.76 353.121 247.901 352.449 246.8C351.777 245.699 351.441 244.429 351.441 242.992C351.441 241.555 351.777 240.285 352.449 239.184C353.121 238.083 354.026 237.233 355.165 236.636C356.322 236.02 357.592 235.712 358.973 235.712C361.157 235.712 362.818 236.431 363.957 237.868V235.936H368.101ZM359.841 246.688C360.998 246.688 361.941 246.352 362.669 245.68C363.416 244.989 363.789 244.093 363.789 242.992C363.789 241.891 363.416 241.004 362.669 240.332C361.941 239.641 360.998 239.296 359.841 239.296C358.684 239.296 357.732 239.641 356.985 240.332C356.238 241.004 355.865 241.891 355.865 242.992C355.865 244.093 356.238 244.989 356.985 245.68C357.732 246.352 358.684 246.688 359.841 246.688ZM377.234 251.224C375.984 251.224 374.761 251.075 373.566 250.776C372.372 250.459 371.42 250.067 370.71 249.6L372.166 246.464C372.838 246.893 373.65 247.248 374.602 247.528C375.554 247.789 376.488 247.92 377.402 247.92C379.25 247.92 380.174 247.463 380.174 246.548C380.174 246.119 379.922 245.811 379.418 245.624C378.914 245.437 378.14 245.279 377.094 245.148C375.862 244.961 374.845 244.747 374.042 244.504C373.24 244.261 372.54 243.832 371.942 243.216C371.364 242.6 371.074 241.723 371.074 240.584C371.074 239.632 371.345 238.792 371.886 238.064C372.446 237.317 373.249 236.739 374.294 236.328C375.358 235.917 376.609 235.712 378.046 235.712C379.11 235.712 380.165 235.833 381.21 236.076C382.274 236.3 383.152 236.617 383.842 237.028L382.386 240.136C381.061 239.389 379.614 239.016 378.046 239.016C377.113 239.016 376.413 239.147 375.946 239.408C375.48 239.669 375.246 240.005 375.246 240.416C375.246 240.883 375.498 241.209 376.002 241.396C376.506 241.583 377.309 241.76 378.41 241.928C379.642 242.133 380.65 242.357 381.434 242.6C382.218 242.824 382.9 243.244 383.478 243.86C384.057 244.476 384.346 245.335 384.346 246.436C384.346 247.369 384.066 248.2 383.506 248.928C382.946 249.656 382.125 250.225 381.042 250.636C379.978 251.028 378.709 251.224 377.234 251.224ZM404.687 250.272C404.258 250.589 403.726 250.832 403.091 251C402.475 251.149 401.822 251.224 401.131 251.224C399.339 251.224 397.948 250.767 396.959 249.852C395.988 248.937 395.503 247.593 395.503 245.82V239.632H393.179V236.272H395.503V232.604H399.871V236.272H403.623V239.632H399.871V245.764C399.871 246.399 400.03 246.893 400.347 247.248C400.683 247.584 401.15 247.752 401.747 247.752C402.438 247.752 403.026 247.565 403.511 247.192L404.687 250.272ZM416.295 235.712C418.162 235.712 419.664 236.272 420.803 237.392C421.96 238.512 422.539 240.173 422.539 242.376V251H418.171V243.048C418.171 241.853 417.91 240.967 417.387 240.388C416.864 239.791 416.108 239.492 415.119 239.492C414.018 239.492 413.14 239.837 412.487 240.528C411.834 241.2 411.507 242.208 411.507 243.552V251H407.139V230.224H411.507V237.504C412.086 236.925 412.786 236.487 413.607 236.188C414.428 235.871 415.324 235.712 416.295 235.712ZM432.574 235.712C434.908 235.712 436.7 236.272 437.95 237.392C439.201 238.493 439.826 240.164 439.826 242.404V251H435.738V249.124C434.917 250.524 433.386 251.224 431.146 251.224C429.989 251.224 428.981 251.028 428.122 250.636C427.282 250.244 426.638 249.703 426.19 249.012C425.742 248.321 425.518 247.537 425.518 246.66C425.518 245.26 426.041 244.159 427.086 243.356C428.15 242.553 429.784 242.152 431.986 242.152H435.458C435.458 241.2 435.169 240.472 434.59 239.968C434.012 239.445 433.144 239.184 431.986 239.184C431.184 239.184 430.39 239.315 429.606 239.576C428.841 239.819 428.188 240.155 427.646 240.584L426.078 237.532C426.9 236.953 427.88 236.505 429.018 236.188C430.176 235.871 431.361 235.712 432.574 235.712ZM432.238 248.284C432.985 248.284 433.648 248.116 434.226 247.78C434.805 247.425 435.216 246.912 435.458 246.24V244.7H432.462C430.67 244.7 429.774 245.288 429.774 246.464C429.774 247.024 429.989 247.472 430.418 247.808C430.866 248.125 431.473 248.284 432.238 248.284ZM453.496 250.272C453.066 250.589 452.534 250.832 451.9 251C451.284 251.149 450.63 251.224 449.94 251.224C448.148 251.224 446.757 250.767 445.768 249.852C444.797 248.937 444.312 247.593 444.312 245.82V239.632H441.988V236.272H444.312V232.604H448.68V236.272H452.432V239.632H448.68V245.764C448.68 246.399 448.838 246.893 449.156 247.248C449.492 247.584 449.958 247.752 450.556 247.752C451.246 247.752 451.834 247.565 452.32 247.192L453.496 250.272ZM478.829 235.936L472.025 251.924C471.335 253.66 470.476 254.883 469.449 255.592C468.441 256.301 467.219 256.656 465.781 256.656C464.997 256.656 464.223 256.535 463.457 256.292C462.692 256.049 462.067 255.713 461.581 255.284L463.177 252.176C463.513 252.475 463.896 252.708 464.325 252.876C464.773 253.044 465.212 253.128 465.641 253.128C466.239 253.128 466.724 252.979 467.097 252.68C467.471 252.4 467.807 251.924 468.105 251.252L468.161 251.112L461.637 235.936H466.145L470.373 246.156L474.629 235.936H478.829ZM487.37 251.224C485.783 251.224 484.355 250.897 483.086 250.244C481.835 249.572 480.855 248.648 480.146 247.472C479.436 246.296 479.082 244.961 479.082 243.468C479.082 241.975 479.436 240.64 480.146 239.464C480.855 238.288 481.835 237.373 483.086 236.72C484.355 236.048 485.783 235.712 487.37 235.712C488.956 235.712 490.375 236.048 491.626 236.72C492.876 237.373 493.856 238.288 494.566 239.464C495.275 240.64 495.63 241.975 495.63 243.468C495.63 244.961 495.275 246.296 494.566 247.472C493.856 248.648 492.876 249.572 491.626 250.244C490.375 250.897 488.956 251.224 487.37 251.224ZM487.37 247.64C488.49 247.64 489.404 247.267 490.114 246.52C490.842 245.755 491.206 244.737 491.206 243.468C491.206 242.199 490.842 241.191 490.114 240.444C489.404 239.679 488.49 239.296 487.37 239.296C486.25 239.296 485.326 239.679 484.598 240.444C483.87 241.191 483.506 242.199 483.506 243.468C483.506 244.737 483.87 245.755 484.598 246.52C485.326 247.267 486.25 247.64 487.37 247.64ZM513.725 235.936V251H509.581V249.208C509.003 249.861 508.312 250.365 507.509 250.72C506.707 251.056 505.839 251.224 504.905 251.224C502.927 251.224 501.359 250.655 500.201 249.516C499.044 248.377 498.465 246.688 498.465 244.448V235.936H502.833V243.804C502.833 246.231 503.851 247.444 505.885 247.444C506.931 247.444 507.771 247.108 508.405 246.436C509.04 245.745 509.357 244.728 509.357 243.384V235.936H513.725ZM532.982 251.224C531.376 251.224 529.93 250.897 528.642 250.244C527.372 249.572 526.374 248.648 525.646 247.472C524.936 246.296 524.582 244.961 524.582 243.468C524.582 241.975 524.936 240.64 525.646 239.464C526.374 238.288 527.372 237.373 528.642 236.72C529.93 236.048 531.376 235.712 532.982 235.712C534.568 235.712 535.95 236.048 537.126 236.72C538.32 237.373 539.188 238.316 539.73 239.548L536.342 241.368C535.558 239.987 534.428 239.296 532.954 239.296C531.815 239.296 530.872 239.669 530.126 240.416C529.379 241.163 529.006 242.18 529.006 243.468C529.006 244.756 529.379 245.773 530.126 246.52C530.872 247.267 531.815 247.64 532.954 247.64C534.447 247.64 535.576 246.949 536.342 245.568L539.73 247.416C539.188 248.611 538.32 249.544 537.126 250.216C535.95 250.888 534.568 251.224 532.982 251.224ZM548.321 235.712C550.654 235.712 552.446 236.272 553.697 237.392C554.947 238.493 555.573 240.164 555.573 242.404V251H551.485V249.124C550.663 250.524 549.133 251.224 546.893 251.224C545.735 251.224 544.727 251.028 543.869 250.636C543.029 250.244 542.385 249.703 541.937 249.012C541.489 248.321 541.265 247.537 541.265 246.66C541.265 245.26 541.787 244.159 542.833 243.356C543.897 242.553 545.53 242.152 547.733 242.152H551.205C551.205 241.2 550.915 240.472 550.337 239.968C549.758 239.445 548.89 239.184 547.733 239.184C546.93 239.184 546.137 239.315 545.353 239.576C544.587 239.819 543.934 240.155 543.393 240.584L541.825 237.532C542.646 236.953 543.626 236.505 544.765 236.188C545.922 235.871 547.107 235.712 548.321 235.712ZM547.985 248.284C548.731 248.284 549.394 248.116 549.973 247.78C550.551 247.425 550.962 246.912 551.205 246.24V244.7H548.209C546.417 244.7 545.521 245.288 545.521 246.464C545.521 247.024 545.735 247.472 546.165 247.808C546.613 248.125 547.219 248.284 547.985 248.284ZM568.682 235.712C570.548 235.712 572.051 236.272 573.19 237.392C574.347 238.512 574.926 240.173 574.926 242.376V251H570.558V243.048C570.558 241.853 570.296 240.967 569.774 240.388C569.251 239.791 568.495 239.492 567.506 239.492C566.404 239.492 565.527 239.837 564.874 240.528C564.22 241.2 563.894 242.208 563.894 243.552V251H559.526V235.936H563.698V237.7C564.276 237.065 564.995 236.58 565.854 236.244C566.712 235.889 567.655 235.712 568.682 235.712ZM174.439 285.224C173.189 285.224 171.966 285.075 170.771 284.776C169.577 284.459 168.625 284.067 167.915 283.6L169.371 280.464C170.043 280.893 170.855 281.248 171.807 281.528C172.759 281.789 173.693 281.92 174.607 281.92C176.455 281.92 177.379 281.463 177.379 280.548C177.379 280.119 177.127 279.811 176.623 279.624C176.119 279.437 175.345 279.279 174.299 279.148C173.067 278.961 172.05 278.747 171.247 278.504C170.445 278.261 169.745 277.832 169.147 277.216C168.569 276.6 168.279 275.723 168.279 274.584C168.279 273.632 168.55 272.792 169.091 272.064C169.651 271.317 170.454 270.739 171.499 270.328C172.563 269.917 173.814 269.712 175.251 269.712C176.315 269.712 177.37 269.833 178.415 270.076C179.479 270.3 180.357 270.617 181.047 271.028L179.591 274.136C178.266 273.389 176.819 273.016 175.251 273.016C174.318 273.016 173.618 273.147 173.151 273.408C172.685 273.669 172.451 274.005 172.451 274.416C172.451 274.883 172.703 275.209 173.207 275.396C173.711 275.583 174.514 275.76 175.615 275.928C176.847 276.133 177.855 276.357 178.639 276.6C179.423 276.824 180.105 277.244 180.683 277.86C181.262 278.476 181.551 279.335 181.551 280.436C181.551 281.369 181.271 282.2 180.711 282.928C180.151 283.656 179.33 284.225 178.247 284.636C177.183 285.028 175.914 285.224 174.439 285.224ZM203.538 269.712C205.424 269.712 206.917 270.272 208.018 271.392C209.138 272.493 209.698 274.155 209.698 276.376V285H205.33V277.048C205.33 275.853 205.078 274.967 204.574 274.388C204.089 273.791 203.389 273.492 202.474 273.492C201.448 273.492 200.636 273.828 200.038 274.5C199.441 275.153 199.142 276.133 199.142 277.44V285H194.774V277.048C194.774 274.677 193.822 273.492 191.918 273.492C190.91 273.492 190.108 273.828 189.51 274.5C188.913 275.153 188.614 276.133 188.614 277.44V285H184.246V269.936H188.418V271.672C188.978 271.037 189.66 270.552 190.462 270.216C191.284 269.88 192.18 269.712 193.15 269.712C194.214 269.712 195.176 269.927 196.034 270.356C196.893 270.767 197.584 271.373 198.106 272.176C198.722 271.392 199.497 270.785 200.43 270.356C201.382 269.927 202.418 269.712 203.538 269.712ZM228.534 277.524C228.534 277.58 228.506 277.972 228.45 278.7H217.054C217.259 279.633 217.744 280.371 218.51 280.912C219.275 281.453 220.227 281.724 221.366 281.724C222.15 281.724 222.84 281.612 223.438 281.388C224.054 281.145 224.623 280.772 225.146 280.268L227.47 282.788C226.051 284.412 223.979 285.224 221.254 285.224C219.555 285.224 218.052 284.897 216.746 284.244C215.439 283.572 214.431 282.648 213.722 281.472C213.012 280.296 212.658 278.961 212.658 277.468C212.658 275.993 213.003 274.668 213.694 273.492C214.403 272.297 215.364 271.373 216.578 270.72C217.81 270.048 219.182 269.712 220.694 269.712C222.168 269.712 223.503 270.029 224.698 270.664C225.892 271.299 226.826 272.213 227.498 273.408C228.188 274.584 228.534 275.956 228.534 277.524ZM220.722 273.016C219.732 273.016 218.902 273.296 218.23 273.856C217.558 274.416 217.147 275.181 216.998 276.152H224.418C224.268 275.2 223.858 274.444 223.186 273.884C222.514 273.305 221.692 273.016 220.722 273.016ZM231.442 264.224H235.81V285H231.442V264.224ZM239.864 264.224H244.232V285H239.864V264.224ZM262.291 269.712C264.625 269.712 266.417 270.272 267.667 271.392C268.918 272.493 269.543 274.164 269.543 276.404V285H265.455V283.124C264.634 284.524 263.103 285.224 260.863 285.224C259.706 285.224 258.698 285.028 257.839 284.636C256.999 284.244 256.355 283.703 255.907 283.012C255.459 282.321 255.235 281.537 255.235 280.66C255.235 279.26 255.758 278.159 256.803 277.356C257.867 276.553 259.501 276.152 261.703 276.152H265.175C265.175 275.2 264.886 274.472 264.307 273.968C263.729 273.445 262.861 273.184 261.703 273.184C260.901 273.184 260.107 273.315 259.323 273.576C258.558 273.819 257.905 274.155 257.363 274.584L255.795 271.532C256.617 270.953 257.597 270.505 258.735 270.188C259.893 269.871 261.078 269.712 262.291 269.712ZM261.955 282.284C262.702 282.284 263.365 282.116 263.943 281.78C264.522 281.425 264.933 280.912 265.175 280.24V278.7H262.179C260.387 278.7 259.491 279.288 259.491 280.464C259.491 281.024 259.706 281.472 260.135 281.808C260.583 282.125 261.19 282.284 261.955 282.284ZM277.668 271.924C278.191 271.196 278.891 270.645 279.768 270.272C280.664 269.899 281.691 269.712 282.848 269.712V273.744C282.363 273.707 282.036 273.688 281.868 273.688C280.618 273.688 279.638 274.043 278.928 274.752C278.219 275.443 277.864 276.488 277.864 277.888V285H273.496V269.936H277.668V271.924ZM292.477 285.224C290.89 285.224 289.462 284.897 288.193 284.244C286.942 283.572 285.962 282.648 285.253 281.472C284.544 280.296 284.189 278.961 284.189 277.468C284.189 275.975 284.544 274.64 285.253 273.464C285.962 272.288 286.942 271.373 288.193 270.72C289.462 270.048 290.89 269.712 292.477 269.712C294.064 269.712 295.482 270.048 296.733 270.72C297.984 271.373 298.964 272.288 299.673 273.464C300.382 274.64 300.737 275.975 300.737 277.468C300.737 278.961 300.382 280.296 299.673 281.472C298.964 282.648 297.984 283.572 296.733 284.244C295.482 284.897 294.064 285.224 292.477 285.224ZM292.477 281.64C293.597 281.64 294.512 281.267 295.221 280.52C295.949 279.755 296.313 278.737 296.313 277.468C296.313 276.199 295.949 275.191 295.221 274.444C294.512 273.679 293.597 273.296 292.477 273.296C291.357 273.296 290.433 273.679 289.705 274.444C288.977 275.191 288.613 276.199 288.613 277.468C288.613 278.737 288.977 279.755 289.705 280.52C290.433 281.267 291.357 281.64 292.477 281.64ZM318.833 269.936V285H314.689V283.208C314.11 283.861 313.419 284.365 312.617 284.72C311.814 285.056 310.946 285.224 310.013 285.224C308.034 285.224 306.466 284.655 305.309 283.516C304.151 282.377 303.573 280.688 303.573 278.448V269.936H307.941V277.804C307.941 280.231 308.958 281.444 310.993 281.444C312.038 281.444 312.878 281.108 313.513 280.436C314.147 279.745 314.465 278.728 314.465 277.384V269.936H318.833ZM332.035 269.712C333.902 269.712 335.405 270.272 336.543 271.392C337.701 272.512 338.279 274.173 338.279 276.376V285H333.911V277.048C333.911 275.853 333.65 274.967 333.127 274.388C332.605 273.791 331.849 273.492 330.859 273.492C329.758 273.492 328.881 273.837 328.227 274.528C327.574 275.2 327.247 276.208 327.247 277.552V285H322.879V269.936H327.051V271.7C327.63 271.065 328.349 270.58 329.207 270.244C330.066 269.889 331.009 269.712 332.035 269.712ZM357.747 264.224V285H353.575V283.264C352.492 284.571 350.924 285.224 348.871 285.224C347.452 285.224 346.164 284.907 345.007 284.272C343.868 283.637 342.972 282.732 342.319 281.556C341.665 280.38 341.339 279.017 341.339 277.468C341.339 275.919 341.665 274.556 342.319 273.38C342.972 272.204 343.868 271.299 345.007 270.664C346.164 270.029 347.452 269.712 348.871 269.712C350.793 269.712 352.296 270.319 353.379 271.532V264.224H357.747ZM349.627 281.64C350.728 281.64 351.643 281.267 352.371 280.52C353.099 279.755 353.463 278.737 353.463 277.468C353.463 276.199 353.099 275.191 352.371 274.444C351.643 273.679 350.728 273.296 349.627 273.296C348.507 273.296 347.583 273.679 346.855 274.444C346.127 275.191 345.763 276.199 345.763 277.468C345.763 278.737 346.127 279.755 346.855 280.52C347.583 281.267 348.507 281.64 349.627 281.64ZM384.671 269.936L377.867 285.924C377.176 287.66 376.318 288.883 375.291 289.592C374.283 290.301 373.06 290.656 371.623 290.656C370.839 290.656 370.064 290.535 369.299 290.292C368.534 290.049 367.908 289.713 367.423 289.284L369.019 286.176C369.355 286.475 369.738 286.708 370.167 286.876C370.615 287.044 371.054 287.128 371.483 287.128C372.08 287.128 372.566 286.979 372.939 286.68C373.312 286.4 373.648 285.924 373.947 285.252L374.003 285.112L367.479 269.936H371.987L376.215 280.156L380.471 269.936H384.671ZM393.211 285.224C391.625 285.224 390.197 284.897 388.927 284.244C387.677 283.572 386.697 282.648 385.987 281.472C385.278 280.296 384.923 278.961 384.923 277.468C384.923 275.975 385.278 274.64 385.987 273.464C386.697 272.288 387.677 271.373 388.927 270.72C390.197 270.048 391.625 269.712 393.211 269.712C394.798 269.712 396.217 270.048 397.467 270.72C398.718 271.373 399.698 272.288 400.407 273.464C401.117 274.64 401.471 275.975 401.471 277.468C401.471 278.961 401.117 280.296 400.407 281.472C399.698 282.648 398.718 283.572 397.467 284.244C396.217 284.897 394.798 285.224 393.211 285.224ZM393.211 281.64C394.331 281.64 395.246 281.267 395.955 280.52C396.683 279.755 397.047 278.737 397.047 277.468C397.047 276.199 396.683 275.191 395.955 274.444C395.246 273.679 394.331 273.296 393.211 273.296C392.091 273.296 391.167 273.679 390.439 274.444C389.711 275.191 389.347 276.199 389.347 277.468C389.347 278.737 389.711 279.755 390.439 280.52C391.167 281.267 392.091 281.64 393.211 281.64ZM419.567 269.936V285H415.423V283.208C414.844 283.861 414.154 284.365 413.351 284.72C412.548 285.056 411.68 285.224 410.747 285.224C408.768 285.224 407.2 284.655 406.043 283.516C404.886 282.377 404.307 280.688 404.307 278.448V269.936H408.675V277.804C408.675 280.231 409.692 281.444 411.727 281.444C412.772 281.444 413.612 281.108 414.247 280.436C414.882 279.745 415.199 278.728 415.199 277.384V269.936H419.567ZM435.715 271.924C436.238 271.196 436.938 270.645 437.815 270.272C438.711 269.899 439.738 269.712 440.895 269.712V273.744C440.41 273.707 440.083 273.688 439.915 273.688C438.665 273.688 437.685 274.043 436.975 274.752C436.266 275.443 435.911 276.488 435.911 277.888V285H431.543V269.936H435.715V271.924ZM443.493 269.936H447.861V285H443.493V269.936ZM445.677 267.836C444.874 267.836 444.221 267.603 443.717 267.136C443.213 266.669 442.961 266.091 442.961 265.4C442.961 264.709 443.213 264.131 443.717 263.664C444.221 263.197 444.874 262.964 445.677 262.964C446.479 262.964 447.133 263.188 447.637 263.636C448.141 264.084 448.393 264.644 448.393 265.316C448.393 266.044 448.141 266.651 447.637 267.136C447.133 267.603 446.479 267.836 445.677 267.836ZM467.454 269.936V282.48C467.454 285.243 466.736 287.296 465.298 288.64C463.861 289.984 461.761 290.656 458.998 290.656C457.542 290.656 456.161 290.479 454.854 290.124C453.548 289.769 452.465 289.256 451.606 288.584L453.342 285.448C453.977 285.971 454.78 286.381 455.75 286.68C456.721 286.997 457.692 287.156 458.662 287.156C460.174 287.156 461.285 286.811 461.994 286.12C462.722 285.448 463.086 284.421 463.086 283.04V282.396C461.948 283.647 460.361 284.272 458.326 284.272C456.945 284.272 455.676 283.973 454.518 283.376C453.38 282.76 452.474 281.901 451.802 280.8C451.13 279.699 450.794 278.429 450.794 276.992C450.794 275.555 451.13 274.285 451.802 273.184C452.474 272.083 453.38 271.233 454.518 270.636C455.676 270.02 456.945 269.712 458.326 269.712C460.51 269.712 462.172 270.431 463.31 271.868V269.936H467.454ZM459.194 280.688C460.352 280.688 461.294 280.352 462.022 279.68C462.769 278.989 463.142 278.093 463.142 276.992C463.142 275.891 462.769 275.004 462.022 274.332C461.294 273.641 460.352 273.296 459.194 273.296C458.037 273.296 457.085 273.641 456.338 274.332C455.592 275.004 455.218 275.891 455.218 276.992C455.218 278.093 455.592 278.989 456.338 279.68C457.085 280.352 458.037 280.688 459.194 280.688ZM480.676 269.712C482.543 269.712 484.045 270.272 485.184 271.392C486.341 272.512 486.92 274.173 486.92 276.376V285H482.552V277.048C482.552 275.853 482.291 274.967 481.768 274.388C481.245 273.791 480.489 273.492 479.5 273.492C478.399 273.492 477.521 273.837 476.868 274.528C476.215 275.2 475.888 276.208 475.888 277.552V285H471.52V264.224H475.888V271.504C476.467 270.925 477.167 270.487 477.988 270.188C478.809 269.871 479.705 269.712 480.676 269.712ZM500.595 284.272C500.166 284.589 499.634 284.832 498.999 285C498.383 285.149 497.73 285.224 497.039 285.224C495.247 285.224 493.857 284.767 492.867 283.852C491.897 282.937 491.411 281.593 491.411 279.82V273.632H489.087V270.272H491.411V266.604H495.779V270.272H499.531V273.632H495.779V279.764C495.779 280.399 495.938 280.893 496.255 281.248C496.591 281.584 497.058 281.752 497.655 281.752C498.346 281.752 498.934 281.565 499.419 281.192L500.595 284.272ZM520.133 269.712C522 269.712 523.502 270.272 524.641 271.392C525.798 272.512 526.377 274.173 526.377 276.376V285H522.009V277.048C522.009 275.853 521.748 274.967 521.225 274.388C520.702 273.791 519.946 273.492 518.957 273.492C517.856 273.492 516.978 273.837 516.325 274.528C515.672 275.2 515.345 276.208 515.345 277.552V285H510.977V269.936H515.149V271.7C515.728 271.065 516.446 270.58 517.305 270.244C518.164 269.889 519.106 269.712 520.133 269.712ZM537.668 285.224C536.082 285.224 534.654 284.897 533.384 284.244C532.134 283.572 531.154 282.648 530.444 281.472C529.735 280.296 529.38 278.961 529.38 277.468C529.38 275.975 529.735 274.64 530.444 273.464C531.154 272.288 532.134 271.373 533.384 270.72C534.654 270.048 536.082 269.712 537.668 269.712C539.255 269.712 540.674 270.048 541.924 270.72C543.175 271.373 544.155 272.288 544.864 273.464C545.574 274.64 545.928 275.975 545.928 277.468C545.928 278.961 545.574 280.296 544.864 281.472C544.155 282.648 543.175 283.572 541.924 284.244C540.674 284.897 539.255 285.224 537.668 285.224ZM537.668 281.64C538.788 281.64 539.703 281.267 540.412 280.52C541.14 279.755 541.504 278.737 541.504 277.468C541.504 276.199 541.14 275.191 540.412 274.444C539.703 273.679 538.788 273.296 537.668 273.296C536.548 273.296 535.624 273.679 534.896 274.444C534.168 275.191 533.804 276.199 533.804 277.468C533.804 278.737 534.168 279.755 534.896 280.52C535.624 281.267 536.548 281.64 537.668 281.64ZM572.63 269.936L567.17 285H562.97L559.582 275.648L556.082 285H551.882L546.45 269.936H550.566L554.122 280.128L557.818 269.936H561.514L565.098 280.128L568.766 269.936H572.63Z" fill="#246482"/>
</svg>
