<svg width="740" height="515" viewBox="0 0 740 515" fill="none" xmlns="http://www.w3.org/2000/svg">
<rect width="740" height="515" fill="#EAFBFF"/>
<path d="M158.534 231.4V251H154.81L145.038 239.1V251H140.558V231.4H144.31L154.054 243.3V231.4H158.534ZM168.94 235.712C171.273 235.712 173.065 236.272 174.316 237.392C175.566 238.493 176.192 240.164 176.192 242.404V251H172.104V249.124C171.282 250.524 169.752 251.224 167.512 251.224C166.354 251.224 165.346 251.028 164.488 250.636C163.648 250.244 163.004 249.703 162.556 249.012C162.108 248.321 161.884 247.537 161.884 246.66C161.884 245.26 162.406 244.159 163.452 243.356C164.516 242.553 166.149 242.152 168.352 242.152H171.824C171.824 241.2 171.534 240.472 170.956 239.968C170.377 239.445 169.509 239.184 168.352 239.184C167.549 239.184 166.756 239.315 165.972 239.576C165.206 239.819 164.553 240.155 164.012 240.584L162.444 237.532C163.265 236.953 164.245 236.505 165.384 236.188C166.541 235.871 167.726 235.712 168.94 235.712ZM168.604 248.284C169.35 248.284 170.013 248.116 170.592 247.78C171.17 247.425 171.581 246.912 171.824 246.24V244.7H168.828C167.036 244.7 166.14 245.288 166.14 246.464C166.14 247.024 166.354 247.472 166.784 247.808C167.232 248.125 167.838 248.284 168.604 248.284ZM199.437 235.712C201.322 235.712 202.816 236.272 203.917 237.392C205.037 238.493 205.597 240.155 205.597 242.376V251H201.229V243.048C201.229 241.853 200.977 240.967 200.473 240.388C199.988 239.791 199.288 239.492 198.373 239.492C197.346 239.492 196.534 239.828 195.937 240.5C195.34 241.153 195.041 242.133 195.041 243.44V251H190.673V243.048C190.673 240.677 189.721 239.492 187.817 239.492C186.809 239.492 186.006 239.828 185.409 240.5C184.812 241.153 184.513 242.133 184.513 243.44V251H180.145V235.936H184.317V237.672C184.877 237.037 185.558 236.552 186.361 236.216C187.182 235.88 188.078 235.712 189.049 235.712C190.113 235.712 191.074 235.927 191.933 236.356C192.792 236.767 193.482 237.373 194.005 238.176C194.621 237.392 195.396 236.785 196.329 236.356C197.281 235.927 198.317 235.712 199.437 235.712ZM224.432 243.524C224.432 243.58 224.404 243.972 224.348 244.7H212.952C213.157 245.633 213.643 246.371 214.408 246.912C215.173 247.453 216.125 247.724 217.264 247.724C218.048 247.724 218.739 247.612 219.336 247.388C219.952 247.145 220.521 246.772 221.044 246.268L223.368 248.788C221.949 250.412 219.877 251.224 217.152 251.224C215.453 251.224 213.951 250.897 212.644 250.244C211.337 249.572 210.329 248.648 209.62 247.472C208.911 246.296 208.556 244.961 208.556 243.468C208.556 241.993 208.901 240.668 209.592 239.492C210.301 238.297 211.263 237.373 212.476 236.72C213.708 236.048 215.08 235.712 216.592 235.712C218.067 235.712 219.401 236.029 220.596 236.664C221.791 237.299 222.724 238.213 223.396 239.408C224.087 240.584 224.432 241.956 224.432 243.524ZM216.62 239.016C215.631 239.016 214.8 239.296 214.128 239.856C213.456 240.416 213.045 241.181 212.896 242.152H220.316C220.167 241.2 219.756 240.444 219.084 239.884C218.412 239.305 217.591 239.016 216.62 239.016ZM241.066 238.764C243.829 238.764 245.863 239.315 247.17 240.416C248.495 241.517 249.158 242.992 249.158 244.84C249.158 246.035 248.859 247.127 248.262 248.116C247.665 249.087 246.75 249.871 245.518 250.468C244.305 251.047 242.802 251.336 241.01 251.336C239.629 251.336 238.266 251.159 236.922 250.804C235.597 250.431 234.467 249.908 233.534 249.236L235.326 245.764C236.073 246.324 236.931 246.763 237.902 247.08C238.873 247.379 239.871 247.528 240.898 247.528C242.037 247.528 242.933 247.304 243.586 246.856C244.239 246.408 244.566 245.783 244.566 244.98C244.566 244.14 244.221 243.505 243.53 243.076C242.858 242.647 241.682 242.432 240.002 242.432H234.99L235.998 231.4H247.954V235.04H239.778L239.47 238.764H241.066ZM269.568 250.272C269.139 250.589 268.607 250.832 267.972 251C267.356 251.149 266.703 251.224 266.012 251.224C264.22 251.224 262.829 250.767 261.84 249.852C260.869 248.937 260.384 247.593 260.384 245.82V239.632H258.06V236.272H260.384V232.604H264.752V236.272H268.504V239.632H264.752V245.764C264.752 246.399 264.911 246.893 265.228 247.248C265.564 247.584 266.031 247.752 266.628 247.752C267.319 247.752 267.907 247.565 268.392 247.192L269.568 250.272ZM281.176 235.712C283.043 235.712 284.545 236.272 285.684 237.392C286.841 238.512 287.42 240.173 287.42 242.376V251H283.052V243.048C283.052 241.853 282.791 240.967 282.268 240.388C281.745 239.791 280.989 239.492 280 239.492C278.899 239.492 278.021 239.837 277.368 240.528C276.715 241.2 276.388 242.208 276.388 243.552V251H272.02V230.224H276.388V237.504C276.967 236.925 277.667 236.487 278.488 236.188C279.309 235.871 280.205 235.712 281.176 235.712ZM291.379 235.936H295.747V251H291.379V235.936ZM293.563 233.836C292.761 233.836 292.107 233.603 291.603 233.136C291.099 232.669 290.847 232.091 290.847 231.4C290.847 230.709 291.099 230.131 291.603 229.664C292.107 229.197 292.761 228.964 293.563 228.964C294.366 228.964 295.019 229.188 295.523 229.636C296.027 230.084 296.279 230.644 296.279 231.316C296.279 232.044 296.027 232.651 295.523 233.136C295.019 233.603 294.366 233.836 293.563 233.836ZM308.957 235.712C310.824 235.712 312.326 236.272 313.465 237.392C314.622 238.512 315.201 240.173 315.201 242.376V251H310.833V243.048C310.833 241.853 310.572 240.967 310.049 240.388C309.526 239.791 308.77 239.492 307.781 239.492C306.68 239.492 305.802 239.837 305.149 240.528C304.496 241.2 304.169 242.208 304.169 243.552V251H299.801V235.936H303.973V237.7C304.552 237.065 305.27 236.58 306.129 236.244C306.988 235.889 307.93 235.712 308.957 235.712ZM334.865 235.936V248.48C334.865 251.243 334.146 253.296 332.709 254.64C331.271 255.984 329.171 256.656 326.409 256.656C324.953 256.656 323.571 256.479 322.265 256.124C320.958 255.769 319.875 255.256 319.017 254.584L320.753 251.448C321.387 251.971 322.19 252.381 323.161 252.68C324.131 252.997 325.102 253.156 326.073 253.156C327.585 253.156 328.695 252.811 329.405 252.12C330.133 251.448 330.497 250.421 330.497 249.04V248.396C329.358 249.647 327.771 250.272 325.737 250.272C324.355 250.272 323.086 249.973 321.929 249.376C320.79 248.76 319.885 247.901 319.213 246.8C318.541 245.699 318.205 244.429 318.205 242.992C318.205 241.555 318.541 240.285 319.213 239.184C319.885 238.083 320.79 237.233 321.929 236.636C323.086 236.02 324.355 235.712 325.737 235.712C327.921 235.712 329.582 236.431 330.721 237.868V235.936H334.865ZM326.605 246.688C327.762 246.688 328.705 246.352 329.433 245.68C330.179 244.989 330.553 244.093 330.553 242.992C330.553 241.891 330.179 241.004 329.433 240.332C328.705 239.641 327.762 239.296 326.605 239.296C325.447 239.296 324.495 239.641 323.749 240.332C323.002 241.004 322.629 241.891 322.629 242.992C322.629 244.093 323.002 244.989 323.749 245.68C324.495 246.352 325.447 246.688 326.605 246.688ZM343.998 251.224C342.747 251.224 341.525 251.075 340.33 250.776C339.135 250.459 338.183 250.067 337.474 249.6L338.93 246.464C339.602 246.893 340.414 247.248 341.366 247.528C342.318 247.789 343.251 247.92 344.166 247.92C346.014 247.92 346.938 247.463 346.938 246.548C346.938 246.119 346.686 245.811 346.182 245.624C345.678 245.437 344.903 245.279 343.858 245.148C342.626 244.961 341.609 244.747 340.806 244.504C340.003 244.261 339.303 243.832 338.706 243.216C338.127 242.6 337.838 241.723 337.838 240.584C337.838 239.632 338.109 238.792 338.65 238.064C339.21 237.317 340.013 236.739 341.058 236.328C342.122 235.917 343.373 235.712 344.81 235.712C345.874 235.712 346.929 235.833 347.974 236.076C349.038 236.3 349.915 236.617 350.606 237.028L349.15 240.136C347.825 239.389 346.378 239.016 344.81 239.016C343.877 239.016 343.177 239.147 342.71 239.408C342.243 239.669 342.01 240.005 342.01 240.416C342.01 240.883 342.262 241.209 342.766 241.396C343.27 241.583 344.073 241.76 345.174 241.928C346.406 242.133 347.414 242.357 348.198 242.6C348.982 242.824 349.663 243.244 350.242 243.86C350.821 244.476 351.11 245.335 351.11 246.436C351.11 247.369 350.83 248.2 350.27 248.928C349.71 249.656 348.889 250.225 347.806 250.636C346.742 251.028 345.473 251.224 343.998 251.224ZM371.451 250.272C371.021 250.589 370.489 250.832 369.855 251C369.239 251.149 368.585 251.224 367.895 251.224C366.103 251.224 364.712 250.767 363.723 249.852C362.752 248.937 362.267 247.593 362.267 245.82V239.632H359.943V236.272H362.267V232.604H366.635V236.272H370.387V239.632H366.635V245.764C366.635 246.399 366.793 246.893 367.111 247.248C367.447 247.584 367.913 247.752 368.511 247.752C369.201 247.752 369.789 247.565 370.275 247.192L371.451 250.272ZM383.059 235.712C384.925 235.712 386.428 236.272 387.567 237.392C388.724 238.512 389.303 240.173 389.303 242.376V251H384.935V243.048C384.935 241.853 384.673 240.967 384.151 240.388C383.628 239.791 382.872 239.492 381.883 239.492C380.781 239.492 379.904 239.837 379.251 240.528C378.597 241.2 378.271 242.208 378.271 243.552V251H373.903V230.224H378.271V237.504C378.849 236.925 379.549 236.487 380.371 236.188C381.192 235.871 382.088 235.712 383.059 235.712ZM399.338 235.712C401.671 235.712 403.463 236.272 404.714 237.392C405.965 238.493 406.59 240.164 406.59 242.404V251H402.502V249.124C401.681 250.524 400.15 251.224 397.91 251.224C396.753 251.224 395.745 251.028 394.886 250.636C394.046 250.244 393.402 249.703 392.954 249.012C392.506 248.321 392.282 247.537 392.282 246.66C392.282 245.26 392.805 244.159 393.85 243.356C394.914 242.553 396.547 242.152 398.75 242.152H402.222C402.222 241.2 401.933 240.472 401.354 239.968C400.775 239.445 399.907 239.184 398.75 239.184C397.947 239.184 397.154 239.315 396.37 239.576C395.605 239.819 394.951 240.155 394.41 240.584L392.842 237.532C393.663 236.953 394.643 236.505 395.782 236.188C396.939 235.871 398.125 235.712 399.338 235.712ZM399.002 248.284C399.749 248.284 400.411 248.116 400.99 247.78C401.569 247.425 401.979 246.912 402.222 246.24V244.7H399.226C397.434 244.7 396.538 245.288 396.538 246.464C396.538 247.024 396.753 247.472 397.182 247.808C397.63 248.125 398.237 248.284 399.002 248.284ZM420.259 250.272C419.83 250.589 419.298 250.832 418.663 251C418.047 251.149 417.394 251.224 416.703 251.224C414.911 251.224 413.521 250.767 412.531 249.852C411.561 248.937 411.075 247.593 411.075 245.82V239.632H408.751V236.272H411.075V232.604H415.443V236.272H419.195V239.632H415.443V245.764C415.443 246.399 415.602 246.893 415.919 247.248C416.255 247.584 416.722 247.752 417.319 247.752C418.01 247.752 418.598 247.565 419.083 247.192L420.259 250.272ZM445.593 235.936L438.789 251.924C438.098 253.66 437.24 254.883 436.213 255.592C435.205 256.301 433.982 256.656 432.545 256.656C431.761 256.656 430.986 256.535 430.221 256.292C429.456 256.049 428.83 255.713 428.345 255.284L429.941 252.176C430.277 252.475 430.66 252.708 431.089 252.876C431.537 253.044 431.976 253.128 432.405 253.128C433.002 253.128 433.488 252.979 433.861 252.68C434.234 252.4 434.57 251.924 434.869 251.252L434.925 251.112L428.401 235.936H432.909L437.137 246.156L441.393 235.936H445.593ZM454.133 251.224C452.547 251.224 451.119 250.897 449.849 250.244C448.599 249.572 447.619 248.648 446.909 247.472C446.2 246.296 445.845 244.961 445.845 243.468C445.845 241.975 446.2 240.64 446.909 239.464C447.619 238.288 448.599 237.373 449.849 236.72C451.119 236.048 452.547 235.712 454.133 235.712C455.72 235.712 457.139 236.048 458.389 236.72C459.64 237.373 460.62 238.288 461.329 239.464C462.039 240.64 462.393 241.975 462.393 243.468C462.393 244.961 462.039 246.296 461.329 247.472C460.62 248.648 459.64 249.572 458.389 250.244C457.139 250.897 455.72 251.224 454.133 251.224ZM454.133 247.64C455.253 247.64 456.168 247.267 456.877 246.52C457.605 245.755 457.969 244.737 457.969 243.468C457.969 242.199 457.605 241.191 456.877 240.444C456.168 239.679 455.253 239.296 454.133 239.296C453.013 239.296 452.089 239.679 451.361 240.444C450.633 241.191 450.269 242.199 450.269 243.468C450.269 244.737 450.633 245.755 451.361 246.52C452.089 247.267 453.013 247.64 454.133 247.64ZM480.489 235.936V251H476.345V249.208C475.766 249.861 475.076 250.365 474.273 250.72C473.47 251.056 472.602 251.224 471.669 251.224C469.69 251.224 468.122 250.655 466.965 249.516C465.808 248.377 465.229 246.688 465.229 244.448V235.936H469.597V243.804C469.597 246.231 470.614 247.444 472.649 247.444C473.694 247.444 474.534 247.108 475.169 246.436C475.804 245.745 476.121 244.728 476.121 243.384V235.936H480.489ZM499.745 251.224C498.14 251.224 496.693 250.897 495.405 250.244C494.136 249.572 493.137 248.648 492.409 247.472C491.7 246.296 491.345 244.961 491.345 243.468C491.345 241.975 491.7 240.64 492.409 239.464C493.137 238.288 494.136 237.373 495.405 236.72C496.693 236.048 498.14 235.712 499.745 235.712C501.332 235.712 502.713 236.048 503.889 236.72C505.084 237.373 505.952 238.316 506.493 239.548L503.105 241.368C502.321 239.987 501.192 239.296 499.717 239.296C498.579 239.296 497.636 239.669 496.889 240.416C496.143 241.163 495.769 242.18 495.769 243.468C495.769 244.756 496.143 245.773 496.889 246.52C497.636 247.267 498.579 247.64 499.717 247.64C501.211 247.64 502.34 246.949 503.105 245.568L506.493 247.416C505.952 248.611 505.084 249.544 503.889 250.216C502.713 250.888 501.332 251.224 499.745 251.224ZM515.084 235.712C517.418 235.712 519.21 236.272 520.46 237.392C521.711 238.493 522.336 240.164 522.336 242.404V251H518.248V249.124C517.427 250.524 515.896 251.224 513.656 251.224C512.499 251.224 511.491 251.028 510.632 250.636C509.792 250.244 509.148 249.703 508.7 249.012C508.252 248.321 508.028 247.537 508.028 246.66C508.028 245.26 508.551 244.159 509.596 243.356C510.66 242.553 512.294 242.152 514.496 242.152H517.968C517.968 241.2 517.679 240.472 517.1 239.968C516.522 239.445 515.654 239.184 514.496 239.184C513.694 239.184 512.9 239.315 512.116 239.576C511.351 239.819 510.698 240.155 510.156 240.584L508.588 237.532C509.41 236.953 510.39 236.505 511.528 236.188C512.686 235.871 513.871 235.712 515.084 235.712ZM514.748 248.284C515.495 248.284 516.158 248.116 516.736 247.78C517.315 247.425 517.726 246.912 517.968 246.24V244.7H514.972C513.18 244.7 512.284 245.288 512.284 246.464C512.284 247.024 512.499 247.472 512.928 247.808C513.376 248.125 513.983 248.284 514.748 248.284ZM535.445 235.712C537.312 235.712 538.815 236.272 539.953 237.392C541.111 238.512 541.689 240.173 541.689 242.376V251H537.321V243.048C537.321 241.853 537.06 240.967 536.537 240.388C536.015 239.791 535.259 239.492 534.269 239.492C533.168 239.492 532.291 239.837 531.637 240.528C530.984 241.2 530.657 242.208 530.657 243.552V251H526.289V235.936H530.461V237.7C531.04 237.065 531.759 236.58 532.617 236.244C533.476 235.889 534.419 235.712 535.445 235.712ZM558.647 251.224C557.396 251.224 556.173 251.075 554.979 250.776C553.784 250.459 552.832 250.067 552.123 249.6L553.579 246.464C554.251 246.893 555.063 247.248 556.015 247.528C556.967 247.789 557.9 247.92 558.815 247.92C560.663 247.92 561.587 247.463 561.587 246.548C561.587 246.119 561.335 245.811 560.831 245.624C560.327 245.437 559.552 245.279 558.507 245.148C557.275 244.961 556.257 244.747 555.455 244.504C554.652 244.261 553.952 243.832 553.355 243.216C552.776 242.6 552.486 241.723 552.486 240.584C552.486 239.632 552.757 238.792 553.299 238.064C553.859 237.317 554.661 236.739 555.707 236.328C556.771 235.917 558.021 235.712 559.459 235.712C560.523 235.712 561.577 235.833 562.623 236.076C563.687 236.3 564.564 236.617 565.255 237.028L563.799 240.136C562.473 239.389 561.027 239.016 559.459 239.016C558.525 239.016 557.825 239.147 557.359 239.408C556.892 239.669 556.659 240.005 556.659 240.416C556.659 240.883 556.911 241.209 557.415 241.396C557.919 241.583 558.721 241.76 559.823 241.928C561.055 242.133 562.063 242.357 562.847 242.6C563.631 242.824 564.312 243.244 564.891 243.86C565.469 244.476 565.759 245.335 565.759 246.436C565.759 247.369 565.479 248.2 564.919 248.928C564.359 249.656 563.537 250.225 562.455 250.636C561.391 251.028 560.121 251.224 558.647 251.224ZM583.21 243.524C583.21 243.58 583.182 243.972 583.126 244.7H571.73C571.935 245.633 572.42 246.371 573.186 246.912C573.951 247.453 574.903 247.724 576.042 247.724C576.826 247.724 577.516 247.612 578.114 247.388C578.73 247.145 579.299 246.772 579.822 246.268L582.146 248.788C580.727 250.412 578.655 251.224 575.93 251.224C574.231 251.224 572.728 250.897 571.422 250.244C570.115 249.572 569.107 248.648 568.398 247.472C567.688 246.296 567.334 244.961 567.334 243.468C567.334 241.993 567.679 240.668 568.37 239.492C569.079 238.297 570.04 237.373 571.254 236.72C572.486 236.048 573.858 235.712 575.37 235.712C576.844 235.712 578.179 236.029 579.374 236.664C580.568 237.299 581.502 238.213 582.174 239.408C582.864 240.584 583.21 241.956 583.21 243.524ZM575.398 239.016C574.408 239.016 573.578 239.296 572.906 239.856C572.234 240.416 571.823 241.181 571.674 242.152H579.094C578.944 241.2 578.534 240.444 577.862 239.884C577.19 239.305 576.368 239.016 575.398 239.016ZM600.874 243.524C600.874 243.58 600.846 243.972 600.79 244.7H589.394C589.599 245.633 590.084 246.371 590.85 246.912C591.615 247.453 592.567 247.724 593.706 247.724C594.49 247.724 595.18 247.612 595.778 247.388C596.394 247.145 596.963 246.772 597.486 246.268L599.81 248.788C598.391 250.412 596.319 251.224 593.594 251.224C591.895 251.224 590.392 250.897 589.086 250.244C587.779 249.572 586.771 248.648 586.062 247.472C585.352 246.296 584.998 244.961 584.998 243.468C584.998 241.993 585.343 240.668 586.034 239.492C586.743 238.297 587.704 237.373 588.918 236.72C590.15 236.048 591.522 235.712 593.034 235.712C594.508 235.712 595.843 236.029 597.038 236.664C598.232 237.299 599.166 238.213 599.838 239.408C600.528 240.584 600.874 241.956 600.874 243.524ZM593.062 239.016C592.072 239.016 591.242 239.296 590.57 239.856C589.898 240.416 589.487 241.181 589.338 242.152H596.758C596.608 241.2 596.198 240.444 595.526 239.884C594.854 239.305 594.032 239.016 593.062 239.016ZM294.393 269.712C296.726 269.712 298.518 270.272 299.769 271.392C301.019 272.493 301.645 274.164 301.645 276.404V285H297.557V283.124C296.735 284.524 295.205 285.224 292.965 285.224C291.807 285.224 290.799 285.028 289.941 284.636C289.101 284.244 288.457 283.703 288.009 283.012C287.561 282.321 287.337 281.537 287.337 280.66C287.337 279.26 287.859 278.159 288.905 277.356C289.969 276.553 291.602 276.152 293.805 276.152H297.277C297.277 275.2 296.987 274.472 296.409 273.968C295.83 273.445 294.962 273.184 293.805 273.184C293.002 273.184 292.209 273.315 291.425 273.576C290.659 273.819 290.006 274.155 289.465 274.584L287.897 271.532C288.718 270.953 289.698 270.505 290.837 270.188C291.994 269.871 293.179 269.712 294.393 269.712ZM294.057 282.284C294.803 282.284 295.466 282.116 296.045 281.78C296.623 281.425 297.034 280.912 297.277 280.24V278.7H294.281C292.489 278.7 291.593 279.288 291.593 280.464C291.593 281.024 291.807 281.472 292.237 281.808C292.685 282.125 293.291 282.284 294.057 282.284ZM309.77 271.924C310.293 271.196 310.993 270.645 311.87 270.272C312.766 269.899 313.793 269.712 314.95 269.712V273.744C314.465 273.707 314.138 273.688 313.97 273.688C312.719 273.688 311.739 274.043 311.03 274.752C310.321 275.443 309.966 276.488 309.966 277.888V285H305.598V269.936H309.77V271.924ZM324.579 285.224C322.992 285.224 321.564 284.897 320.295 284.244C319.044 283.572 318.064 282.648 317.355 281.472C316.645 280.296 316.291 278.961 316.291 277.468C316.291 275.975 316.645 274.64 317.355 273.464C318.064 272.288 319.044 271.373 320.295 270.72C321.564 270.048 322.992 269.712 324.579 269.712C326.165 269.712 327.584 270.048 328.835 270.72C330.085 271.373 331.065 272.288 331.775 273.464C332.484 274.64 332.839 275.975 332.839 277.468C332.839 278.961 332.484 280.296 331.775 281.472C331.065 282.648 330.085 283.572 328.835 284.244C327.584 284.897 326.165 285.224 324.579 285.224ZM324.579 281.64C325.699 281.64 326.613 281.267 327.323 280.52C328.051 279.755 328.415 278.737 328.415 277.468C328.415 276.199 328.051 275.191 327.323 274.444C326.613 273.679 325.699 273.296 324.579 273.296C323.459 273.296 322.535 273.679 321.807 274.444C321.079 275.191 320.715 276.199 320.715 277.468C320.715 278.737 321.079 279.755 321.807 280.52C322.535 281.267 323.459 281.64 324.579 281.64ZM350.934 269.936V285H346.79V283.208C346.212 283.861 345.521 284.365 344.718 284.72C343.916 285.056 343.048 285.224 342.114 285.224C340.136 285.224 338.568 284.655 337.41 283.516C336.253 282.377 335.674 280.688 335.674 278.448V269.936H340.042V277.804C340.042 280.231 341.06 281.444 343.094 281.444C344.14 281.444 344.98 281.108 345.614 280.436C346.249 279.745 346.566 278.728 346.566 277.384V269.936H350.934ZM364.137 269.712C366.004 269.712 367.506 270.272 368.645 271.392C369.802 272.512 370.381 274.173 370.381 276.376V285H366.013V277.048C366.013 275.853 365.752 274.967 365.229 274.388C364.706 273.791 363.95 273.492 362.961 273.492C361.86 273.492 360.982 273.837 360.329 274.528C359.676 275.2 359.349 276.208 359.349 277.552V285H354.981V269.936H359.153V271.7C359.732 271.065 360.45 270.58 361.309 270.244C362.168 269.889 363.11 269.712 364.137 269.712ZM389.848 264.224V285H385.676V283.264C384.594 284.571 383.026 285.224 380.972 285.224C379.554 285.224 378.266 284.907 377.108 284.272C375.97 283.637 375.074 282.732 374.42 281.556C373.767 280.38 373.44 279.017 373.44 277.468C373.44 275.919 373.767 274.556 374.42 273.38C375.074 272.204 375.97 271.299 377.108 270.664C378.266 270.029 379.554 269.712 380.972 269.712C382.895 269.712 384.398 270.319 385.48 271.532V264.224H389.848ZM381.728 281.64C382.83 281.64 383.744 281.267 384.472 280.52C385.2 279.755 385.564 278.737 385.564 277.468C385.564 276.199 385.2 275.191 384.472 274.444C383.744 273.679 382.83 273.296 381.728 273.296C380.608 273.296 379.684 273.679 378.956 274.444C378.228 275.191 377.864 276.199 377.864 277.468C377.864 278.737 378.228 279.755 378.956 280.52C379.684 281.267 380.608 281.64 381.728 281.64ZM416.773 269.936L409.969 285.924C409.278 287.66 408.419 288.883 407.393 289.592C406.385 290.301 405.162 290.656 403.725 290.656C402.941 290.656 402.166 290.535 401.401 290.292C400.635 290.049 400.01 289.713 399.525 289.284L401.121 286.176C401.457 286.475 401.839 286.708 402.269 286.876C402.717 287.044 403.155 287.128 403.585 287.128C404.182 287.128 404.667 286.979 405.041 286.68C405.414 286.4 405.75 285.924 406.049 285.252L406.105 285.112L399.581 269.936H404.089L408.317 280.156L412.573 269.936H416.773ZM425.313 285.224C423.726 285.224 422.298 284.897 421.029 284.244C419.778 283.572 418.798 282.648 418.089 281.472C417.38 280.296 417.025 278.961 417.025 277.468C417.025 275.975 417.38 274.64 418.089 273.464C418.798 272.288 419.778 271.373 421.029 270.72C422.298 270.048 423.726 269.712 425.313 269.712C426.9 269.712 428.318 270.048 429.569 270.72C430.82 271.373 431.8 272.288 432.509 273.464C433.218 274.64 433.573 275.975 433.573 277.468C433.573 278.961 433.218 280.296 432.509 281.472C431.8 282.648 430.82 283.572 429.569 284.244C428.318 284.897 426.9 285.224 425.313 285.224ZM425.313 281.64C426.433 281.64 427.348 281.267 428.057 280.52C428.785 279.755 429.149 278.737 429.149 277.468C429.149 276.199 428.785 275.191 428.057 274.444C427.348 273.679 426.433 273.296 425.313 273.296C424.193 273.296 423.269 273.679 422.541 274.444C421.813 275.191 421.449 276.199 421.449 277.468C421.449 278.737 421.813 279.755 422.541 280.52C423.269 281.267 424.193 281.64 425.313 281.64ZM451.669 269.936V285H447.525V283.208C446.946 283.861 446.255 284.365 445.453 284.72C444.65 285.056 443.782 285.224 442.849 285.224C440.87 285.224 439.302 284.655 438.145 283.516C436.987 282.377 436.409 280.688 436.409 278.448V269.936H440.777V277.804C440.777 280.231 441.794 281.444 443.829 281.444C444.874 281.444 445.714 281.108 446.349 280.436C446.983 279.745 447.301 278.728 447.301 277.384V269.936H451.669Z" fill="#246482"/>
</svg>
