<svg width="740" height="515" viewBox="0 0 740 515" fill="none" xmlns="http://www.w3.org/2000/svg">
<rect width="740" height="515" fill="#EAFBFF"/>
<path d="M161.924 235.04V240.22H170.996V243.86H161.924V251H157.388V231.4H172.2V235.04H161.924ZM181.748 251.224C180.162 251.224 178.734 250.897 177.464 250.244C176.214 249.572 175.234 248.648 174.524 247.472C173.815 246.296 173.46 244.961 173.46 243.468C173.46 241.975 173.815 240.64 174.524 239.464C175.234 238.288 176.214 237.373 177.464 236.72C178.734 236.048 180.162 235.712 181.748 235.712C183.335 235.712 184.754 236.048 186.004 236.72C187.255 237.373 188.235 238.288 188.944 239.464C189.654 240.64 190.008 241.975 190.008 243.468C190.008 244.961 189.654 246.296 188.944 247.472C188.235 248.648 187.255 249.572 186.004 250.244C184.754 250.897 183.335 251.224 181.748 251.224ZM181.748 247.64C182.868 247.64 183.783 247.267 184.492 246.52C185.22 245.755 185.584 244.737 185.584 243.468C185.584 242.199 185.22 241.191 184.492 240.444C183.783 239.679 182.868 239.296 181.748 239.296C180.628 239.296 179.704 239.679 178.976 240.444C178.248 241.191 177.884 242.199 177.884 243.468C177.884 244.737 178.248 245.755 178.976 246.52C179.704 247.267 180.628 247.64 181.748 247.64ZM200.208 251.224C198.603 251.224 197.156 250.897 195.868 250.244C194.599 249.572 193.6 248.648 192.872 247.472C192.163 246.296 191.808 244.961 191.808 243.468C191.808 241.975 192.163 240.64 192.872 239.464C193.6 238.288 194.599 237.373 195.868 236.72C197.156 236.048 198.603 235.712 200.208 235.712C201.795 235.712 203.176 236.048 204.352 236.72C205.547 237.373 206.415 238.316 206.956 239.548L203.568 241.368C202.784 239.987 201.655 239.296 200.18 239.296C199.041 239.296 198.099 239.669 197.352 240.416C196.605 241.163 196.232 242.18 196.232 243.468C196.232 244.756 196.605 245.773 197.352 246.52C198.099 247.267 199.041 247.64 200.18 247.64C201.673 247.64 202.803 246.949 203.568 245.568L206.956 247.416C206.415 248.611 205.547 249.544 204.352 250.216C203.176 250.888 201.795 251.224 200.208 251.224ZM224.647 235.936V251H220.503V249.208C219.924 249.861 219.234 250.365 218.431 250.72C217.628 251.056 216.76 251.224 215.827 251.224C213.848 251.224 212.28 250.655 211.123 249.516C209.966 248.377 209.387 246.688 209.387 244.448V235.936H213.755V243.804C213.755 246.231 214.772 247.444 216.807 247.444C217.852 247.444 218.692 247.108 219.327 246.436C219.962 245.745 220.279 244.728 220.279 243.384V235.936H224.647ZM233.762 251.224C232.511 251.224 231.288 251.075 230.094 250.776C228.899 250.459 227.947 250.067 227.238 249.6L228.694 246.464C229.366 246.893 230.178 247.248 231.13 247.528C232.082 247.789 233.015 247.92 233.93 247.92C235.778 247.92 236.702 247.463 236.702 246.548C236.702 246.119 236.45 245.811 235.946 245.624C235.442 245.437 234.667 245.279 233.622 245.148C232.39 244.961 231.372 244.747 230.57 244.504C229.767 244.261 229.067 243.832 228.47 243.216C227.891 242.6 227.602 241.723 227.602 240.584C227.602 239.632 227.872 238.792 228.414 238.064C228.974 237.317 229.776 236.739 230.822 236.328C231.886 235.917 233.136 235.712 234.574 235.712C235.638 235.712 236.692 235.833 237.738 236.076C238.802 236.3 239.679 236.617 240.37 237.028L238.914 240.136C237.588 239.389 236.142 239.016 234.574 239.016C233.64 239.016 232.94 239.147 232.474 239.408C232.007 239.669 231.774 240.005 231.774 240.416C231.774 240.883 232.026 241.209 232.53 241.396C233.034 241.583 233.836 241.76 234.938 241.928C236.17 242.133 237.178 242.357 237.962 242.6C238.746 242.824 239.427 243.244 240.006 243.86C240.584 244.476 240.874 245.335 240.874 246.436C240.874 247.369 240.594 248.2 240.034 248.928C239.474 249.656 238.652 250.225 237.57 250.636C236.506 251.028 235.236 251.224 233.762 251.224ZM258.666 251.224C257.08 251.224 255.652 250.897 254.382 250.244C253.132 249.572 252.152 248.648 251.442 247.472C250.733 246.296 250.378 244.961 250.378 243.468C250.378 241.975 250.733 240.64 251.442 239.464C252.152 238.288 253.132 237.373 254.382 236.72C255.652 236.048 257.08 235.712 258.666 235.712C260.253 235.712 261.672 236.048 262.922 236.72C264.173 237.373 265.153 238.288 265.862 239.464C266.572 240.64 266.926 241.975 266.926 243.468C266.926 244.961 266.572 246.296 265.862 247.472C265.153 248.648 264.173 249.572 262.922 250.244C261.672 250.897 260.253 251.224 258.666 251.224ZM258.666 247.64C259.786 247.64 260.701 247.267 261.41 246.52C262.138 245.755 262.502 244.737 262.502 243.468C262.502 242.199 262.138 241.191 261.41 240.444C260.701 239.679 259.786 239.296 258.666 239.296C257.546 239.296 256.622 239.679 255.894 240.444C255.166 241.191 254.802 242.199 254.802 243.468C254.802 244.737 255.166 245.755 255.894 246.52C256.622 247.267 257.546 247.64 258.666 247.64ZM279.002 235.712C280.869 235.712 282.371 236.272 283.51 237.392C284.667 238.512 285.246 240.173 285.246 242.376V251H280.878V243.048C280.878 241.853 280.617 240.967 280.094 240.388C279.571 239.791 278.815 239.492 277.826 239.492C276.725 239.492 275.847 239.837 275.194 240.528C274.541 241.2 274.214 242.208 274.214 243.552V251H269.846V235.936H274.018V237.7C274.597 237.065 275.315 236.58 276.174 236.244C277.033 235.889 277.975 235.712 279.002 235.712ZM303.771 231.4V251H299.235V235.04H295.315V231.4H303.771ZM325.746 250.272C325.316 250.589 324.784 250.832 324.15 251C323.534 251.149 322.88 251.224 322.19 251.224C320.398 251.224 319.007 250.767 318.018 249.852C317.047 248.937 316.562 247.593 316.562 245.82V239.632H314.238V236.272H316.562V232.604H320.93V236.272H324.682V239.632H320.93V245.764C320.93 246.399 321.088 246.893 321.406 247.248C321.742 247.584 322.208 247.752 322.806 247.752C323.496 247.752 324.084 247.565 324.57 247.192L325.746 250.272ZM337.354 235.712C339.22 235.712 340.723 236.272 341.862 237.392C343.019 238.512 343.598 240.173 343.598 242.376V251H339.23V243.048C339.23 241.853 338.968 240.967 338.446 240.388C337.923 239.791 337.167 239.492 336.178 239.492C335.076 239.492 334.199 239.837 333.546 240.528C332.892 241.2 332.566 242.208 332.566 243.552V251H328.198V230.224H332.566V237.504C333.144 236.925 333.844 236.487 334.666 236.188C335.487 235.871 336.383 235.712 337.354 235.712ZM347.557 235.936H351.925V251H347.557V235.936ZM349.741 233.836C348.938 233.836 348.285 233.603 347.781 233.136C347.277 232.669 347.025 232.091 347.025 231.4C347.025 230.709 347.277 230.131 347.781 229.664C348.285 229.197 348.938 228.964 349.741 228.964C350.544 228.964 351.197 229.188 351.701 229.636C352.205 230.084 352.457 230.644 352.457 231.316C352.457 232.044 352.205 232.651 351.701 233.136C351.197 233.603 350.544 233.836 349.741 233.836ZM365.135 235.712C367.002 235.712 368.504 236.272 369.643 237.392C370.8 238.512 371.379 240.173 371.379 242.376V251H367.011V243.048C367.011 241.853 366.75 240.967 366.227 240.388C365.704 239.791 364.948 239.492 363.959 239.492C362.858 239.492 361.98 239.837 361.327 240.528C360.674 241.2 360.347 242.208 360.347 243.552V251H355.979V235.936H360.151V237.7C360.73 237.065 361.448 236.58 362.307 236.244C363.166 235.889 364.108 235.712 365.135 235.712ZM391.042 235.936V248.48C391.042 251.243 390.324 253.296 388.886 254.64C387.449 255.984 385.349 256.656 382.586 256.656C381.13 256.656 379.749 256.479 378.442 256.124C377.136 255.769 376.053 255.256 375.194 254.584L376.93 251.448C377.565 251.971 378.368 252.381 379.338 252.68C380.309 252.997 381.28 253.156 382.25 253.156C383.762 253.156 384.873 252.811 385.582 252.12C386.31 251.448 386.674 250.421 386.674 249.04V248.396C385.536 249.647 383.949 250.272 381.914 250.272C380.533 250.272 379.264 249.973 378.106 249.376C376.968 248.76 376.062 247.901 375.39 246.8C374.718 245.699 374.382 244.429 374.382 242.992C374.382 241.555 374.718 240.285 375.39 239.184C376.062 238.083 376.968 237.233 378.106 236.636C379.264 236.02 380.533 235.712 381.914 235.712C384.098 235.712 385.76 236.431 386.898 237.868V235.936H391.042ZM382.782 246.688C383.94 246.688 384.882 246.352 385.61 245.68C386.357 244.989 386.73 244.093 386.73 242.992C386.73 241.891 386.357 241.004 385.61 240.332C384.882 239.641 383.94 239.296 382.782 239.296C381.625 239.296 380.673 239.641 379.926 240.332C379.18 241.004 378.806 241.891 378.806 242.992C378.806 244.093 379.18 244.989 379.926 245.68C380.673 246.352 381.625 246.688 382.782 246.688ZM412.753 250.272C412.324 250.589 411.792 250.832 411.157 251C410.541 251.149 409.888 251.224 409.197 251.224C407.405 251.224 406.015 250.767 405.025 249.852C404.055 248.937 403.569 247.593 403.569 245.82V239.632H401.245V236.272H403.569V232.604H407.937V236.272H411.689V239.632H407.937V245.764C407.937 246.399 408.096 246.893 408.413 247.248C408.749 247.584 409.216 247.752 409.813 247.752C410.504 247.752 411.092 247.565 411.577 247.192L412.753 250.272ZM424.361 235.712C426.228 235.712 427.731 236.272 428.869 237.392C430.027 238.512 430.605 240.173 430.605 242.376V251H426.237V243.048C426.237 241.853 425.976 240.967 425.453 240.388C424.931 239.791 424.175 239.492 423.185 239.492C422.084 239.492 421.207 239.837 420.553 240.528C419.9 241.2 419.573 242.208 419.573 243.552V251H415.205V230.224H419.573V237.504C420.152 236.925 420.852 236.487 421.673 236.188C422.495 235.871 423.391 235.712 424.361 235.712ZM440.641 235.712C442.974 235.712 444.766 236.272 446.017 237.392C447.267 238.493 447.893 240.164 447.893 242.404V251H443.805V249.124C442.983 250.524 441.453 251.224 439.213 251.224C438.055 251.224 437.047 251.028 436.189 250.636C435.349 250.244 434.705 249.703 434.257 249.012C433.809 248.321 433.585 247.537 433.585 246.66C433.585 245.26 434.107 244.159 435.153 243.356C436.217 242.553 437.85 242.152 440.053 242.152H443.525C443.525 241.2 443.235 240.472 442.657 239.968C442.078 239.445 441.21 239.184 440.053 239.184C439.25 239.184 438.457 239.315 437.673 239.576C436.907 239.819 436.254 240.155 435.713 240.584L434.145 237.532C434.966 236.953 435.946 236.505 437.085 236.188C438.242 235.871 439.427 235.712 440.641 235.712ZM440.305 248.284C441.051 248.284 441.714 248.116 442.293 247.78C442.871 247.425 443.282 246.912 443.525 246.24V244.7H440.529C438.737 244.7 437.841 245.288 437.841 246.464C437.841 247.024 438.055 247.472 438.485 247.808C438.933 248.125 439.539 248.284 440.305 248.284ZM461.562 250.272C461.133 250.589 460.601 250.832 459.966 251C459.35 251.149 458.697 251.224 458.006 251.224C456.214 251.224 454.823 250.767 453.834 249.852C452.863 248.937 452.378 247.593 452.378 245.82V239.632H450.054V236.272H452.378V232.604H456.746V236.272H460.498V239.632H456.746V245.764C456.746 246.399 456.905 246.893 457.222 247.248C457.558 247.584 458.025 247.752 458.622 247.752C459.313 247.752 459.901 247.565 460.386 247.192L461.562 250.272ZM486.896 235.936L480.092 251.924C479.401 253.66 478.542 254.883 477.516 255.592C476.508 256.301 475.285 256.656 473.848 256.656C473.064 256.656 472.289 256.535 471.524 256.292C470.758 256.049 470.133 255.713 469.648 255.284L471.244 252.176C471.58 252.475 471.962 252.708 472.392 252.876C472.84 253.044 473.278 253.128 473.708 253.128C474.305 253.128 474.79 252.979 475.164 252.68C475.537 252.4 475.873 251.924 476.172 251.252L476.228 251.112L469.704 235.936H474.212L478.44 246.156L482.696 235.936H486.896ZM495.436 251.224C493.849 251.224 492.421 250.897 491.152 250.244C489.901 249.572 488.921 248.648 488.212 247.472C487.503 246.296 487.148 244.961 487.148 243.468C487.148 241.975 487.503 240.64 488.212 239.464C488.921 238.288 489.901 237.373 491.152 236.72C492.421 236.048 493.849 235.712 495.436 235.712C497.023 235.712 498.441 236.048 499.692 236.72C500.943 237.373 501.923 238.288 502.632 239.464C503.341 240.64 503.696 241.975 503.696 243.468C503.696 244.961 503.341 246.296 502.632 247.472C501.923 248.648 500.943 249.572 499.692 250.244C498.441 250.897 497.023 251.224 495.436 251.224ZM495.436 247.64C496.556 247.64 497.471 247.267 498.18 246.52C498.908 245.755 499.272 244.737 499.272 243.468C499.272 242.199 498.908 241.191 498.18 240.444C497.471 239.679 496.556 239.296 495.436 239.296C494.316 239.296 493.392 239.679 492.664 240.444C491.936 241.191 491.572 242.199 491.572 243.468C491.572 244.737 491.936 245.755 492.664 246.52C493.392 247.267 494.316 247.64 495.436 247.64ZM521.792 235.936V251H517.648V249.208C517.069 249.861 516.378 250.365 515.576 250.72C514.773 251.056 513.905 251.224 512.972 251.224C510.993 251.224 509.425 250.655 508.268 249.516C507.11 248.377 506.532 246.688 506.532 244.448V235.936H510.9V243.804C510.9 246.231 511.917 247.444 513.952 247.444C514.997 247.444 515.837 247.108 516.472 246.436C517.106 245.745 517.424 244.728 517.424 243.384V235.936H521.792ZM541.048 251.224C539.443 251.224 537.996 250.897 536.708 250.244C535.439 249.572 534.44 248.648 533.712 247.472C533.003 246.296 532.648 244.961 532.648 243.468C532.648 241.975 533.003 240.64 533.712 239.464C534.44 238.288 535.439 237.373 536.708 236.72C537.996 236.048 539.443 235.712 541.048 235.712C542.635 235.712 544.016 236.048 545.192 236.72C546.387 237.373 547.255 238.316 547.796 239.548L544.408 241.368C543.624 239.987 542.495 239.296 541.02 239.296C539.881 239.296 538.939 239.669 538.192 240.416C537.445 241.163 537.072 242.18 537.072 243.468C537.072 244.756 537.445 245.773 538.192 246.52C538.939 247.267 539.881 247.64 541.02 247.64C542.513 247.64 543.643 246.949 544.408 245.568L547.796 247.416C547.255 248.611 546.387 249.544 545.192 250.216C544.016 250.888 542.635 251.224 541.048 251.224ZM556.387 235.712C558.72 235.712 560.512 236.272 561.763 237.392C563.014 238.493 563.639 240.164 563.639 242.404V251H559.551V249.124C558.73 250.524 557.199 251.224 554.959 251.224C553.802 251.224 552.794 251.028 551.935 250.636C551.095 250.244 550.451 249.703 550.003 249.012C549.555 248.321 549.331 247.537 549.331 246.66C549.331 245.26 549.854 244.159 550.899 243.356C551.963 242.553 553.596 242.152 555.799 242.152H559.271C559.271 241.2 558.982 240.472 558.403 239.968C557.824 239.445 556.956 239.184 555.799 239.184C554.996 239.184 554.203 239.315 553.419 239.576C552.654 239.819 552 240.155 551.459 240.584L549.891 237.532C550.712 236.953 551.692 236.505 552.831 236.188C553.988 235.871 555.174 235.712 556.387 235.712ZM556.051 248.284C556.798 248.284 557.46 248.116 558.039 247.78C558.618 247.425 559.028 246.912 559.271 246.24V244.7H556.275C554.483 244.7 553.587 245.288 553.587 246.464C553.587 247.024 553.802 247.472 554.231 247.808C554.679 248.125 555.286 248.284 556.051 248.284ZM576.748 235.712C578.615 235.712 580.118 236.272 581.256 237.392C582.414 238.512 582.992 240.173 582.992 242.376V251H578.624V243.048C578.624 241.853 578.363 240.967 577.84 240.388C577.318 239.791 576.562 239.492 575.572 239.492C574.471 239.492 573.594 239.837 572.94 240.528C572.287 241.2 571.96 242.208 571.96 243.552V251H567.592V235.936H571.764V237.7C572.343 237.065 573.062 236.58 573.92 236.244C574.779 235.889 575.722 235.712 576.748 235.712ZM344.886 284.272C344.457 284.589 343.925 284.832 343.29 285C342.674 285.149 342.021 285.224 341.33 285.224C339.538 285.224 338.148 284.767 337.158 283.852C336.188 282.937 335.702 281.593 335.702 279.82V273.632H333.378V270.272H335.702V266.604H340.07V270.272H343.822V273.632H340.07V279.764C340.07 280.399 340.229 280.893 340.546 281.248C340.882 281.584 341.349 281.752 341.946 281.752C342.637 281.752 343.225 281.565 343.71 281.192L344.886 284.272ZM353.414 269.712C355.748 269.712 357.54 270.272 358.79 271.392C360.041 272.493 360.666 274.164 360.666 276.404V285H356.578V283.124C355.757 284.524 354.226 285.224 351.986 285.224C350.829 285.224 349.821 285.028 348.962 284.636C348.122 284.244 347.478 283.703 347.03 283.012C346.582 282.321 346.358 281.537 346.358 280.66C346.358 279.26 346.881 278.159 347.926 277.356C348.99 276.553 350.624 276.152 352.826 276.152H356.298C356.298 275.2 356.009 274.472 355.43 273.968C354.852 273.445 353.984 273.184 352.826 273.184C352.024 273.184 351.23 273.315 350.446 273.576C349.681 273.819 349.028 274.155 348.486 274.584L346.918 271.532C347.74 270.953 348.72 270.505 349.858 270.188C351.016 269.871 352.201 269.712 353.414 269.712ZM353.078 282.284C353.825 282.284 354.488 282.116 355.066 281.78C355.645 281.425 356.056 280.912 356.298 280.24V278.7H353.302C351.51 278.7 350.614 279.288 350.614 280.464C350.614 281.024 350.829 281.472 351.258 281.808C351.706 282.125 352.313 282.284 353.078 282.284ZM369.688 285.224C368.437 285.224 367.214 285.075 366.02 284.776C364.825 284.459 363.873 284.067 363.164 283.6L364.62 280.464C365.292 280.893 366.104 281.248 367.056 281.528C368.008 281.789 368.941 281.92 369.856 281.92C371.704 281.92 372.628 281.463 372.628 280.548C372.628 280.119 372.376 279.811 371.872 279.624C371.368 279.437 370.593 279.279 369.548 279.148C368.316 278.961 367.298 278.747 366.496 278.504C365.693 278.261 364.993 277.832 364.396 277.216C363.817 276.6 363.528 275.723 363.528 274.584C363.528 273.632 363.798 272.792 364.34 272.064C364.9 271.317 365.702 270.739 366.748 270.328C367.812 269.917 369.062 269.712 370.5 269.712C371.564 269.712 372.618 269.833 373.664 270.076C374.728 270.3 375.605 270.617 376.296 271.028L374.84 274.136C373.514 273.389 372.068 273.016 370.5 273.016C369.566 273.016 368.866 273.147 368.4 273.408C367.933 273.669 367.7 274.005 367.7 274.416C367.7 274.883 367.952 275.209 368.456 275.396C368.96 275.583 369.762 275.76 370.864 275.928C372.096 276.133 373.104 276.357 373.888 276.6C374.672 276.824 375.353 277.244 375.932 277.86C376.51 278.476 376.8 279.335 376.8 280.436C376.8 281.369 376.52 282.2 375.96 282.928C375.4 283.656 374.578 284.225 373.496 284.636C372.432 285.028 371.162 285.224 369.688 285.224ZM389.211 284.272C388.781 284.589 388.249 284.832 387.615 285C386.999 285.149 386.345 285.224 385.655 285.224C383.863 285.224 382.472 284.767 381.483 283.852C380.512 282.937 380.027 281.593 380.027 279.82V273.632H377.703V270.272H380.027V266.604H384.395V270.272H388.147V273.632H384.395V279.764C384.395 280.399 384.553 280.893 384.871 281.248C385.207 281.584 385.673 281.752 386.271 281.752C386.961 281.752 387.549 281.565 388.035 281.192L389.211 284.272ZM405.954 277.524C405.954 277.58 405.926 277.972 405.87 278.7H394.474C394.679 279.633 395.164 280.371 395.93 280.912C396.695 281.453 397.647 281.724 398.786 281.724C399.57 281.724 400.26 281.612 400.858 281.388C401.474 281.145 402.043 280.772 402.566 280.268L404.89 282.788C403.471 284.412 401.399 285.224 398.674 285.224C396.975 285.224 395.472 284.897 394.166 284.244C392.859 283.572 391.851 282.648 391.142 281.472C390.432 280.296 390.078 278.961 390.078 277.468C390.078 275.993 390.423 274.668 391.114 273.492C391.823 272.297 392.784 271.373 393.998 270.72C395.23 270.048 396.602 269.712 398.114 269.712C399.588 269.712 400.923 270.029 402.118 270.664C403.312 271.299 404.246 272.213 404.918 273.408C405.608 274.584 405.954 275.956 405.954 277.524ZM398.142 273.016C397.152 273.016 396.322 273.296 395.65 273.856C394.978 274.416 394.567 275.181 394.418 276.152H401.838C401.688 275.2 401.278 274.444 400.606 273.884C399.934 273.305 399.112 273.016 398.142 273.016Z" fill="#246482"/>
</svg>
