<svg width="740" height="515" viewBox="0 0 740 515" fill="none" xmlns="http://www.w3.org/2000/svg">
<rect width="740" height="515" fill="#EAFBFF"/>
<path d="M150.317 235.04V240.22H159.389V243.86H150.317V251H145.781V231.4H160.593V235.04H150.317ZM170.141 251.224C168.554 251.224 167.126 250.897 165.857 250.244C164.606 249.572 163.626 248.648 162.917 247.472C162.208 246.296 161.853 244.961 161.853 243.468C161.853 241.975 162.208 240.64 162.917 239.464C163.626 238.288 164.606 237.373 165.857 236.72C167.126 236.048 168.554 235.712 170.141 235.712C171.728 235.712 173.146 236.048 174.397 236.72C175.648 237.373 176.628 238.288 177.337 239.464C178.046 240.64 178.401 241.975 178.401 243.468C178.401 244.961 178.046 246.296 177.337 247.472C176.628 248.648 175.648 249.572 174.397 250.244C173.146 250.897 171.728 251.224 170.141 251.224ZM170.141 247.64C171.261 247.64 172.176 247.267 172.885 246.52C173.613 245.755 173.977 244.737 173.977 243.468C173.977 242.199 173.613 241.191 172.885 240.444C172.176 239.679 171.261 239.296 170.141 239.296C169.021 239.296 168.097 239.679 167.369 240.444C166.641 241.191 166.277 242.199 166.277 243.468C166.277 244.737 166.641 245.755 167.369 246.52C168.097 247.267 169.021 247.64 170.141 247.64ZM188.601 251.224C186.995 251.224 185.549 250.897 184.261 250.244C182.991 249.572 181.993 248.648 181.265 247.472C180.555 246.296 180.201 244.961 180.201 243.468C180.201 241.975 180.555 240.64 181.265 239.464C181.993 238.288 182.991 237.373 184.261 236.72C185.549 236.048 186.995 235.712 188.601 235.712C190.187 235.712 191.569 236.048 192.745 236.72C193.939 237.373 194.807 238.316 195.349 239.548L191.961 241.368C191.177 239.987 190.047 239.296 188.573 239.296C187.434 239.296 186.491 239.669 185.745 240.416C184.998 241.163 184.625 242.18 184.625 243.468C184.625 244.756 184.998 245.773 185.745 246.52C186.491 247.267 187.434 247.64 188.573 247.64C190.066 247.64 191.195 246.949 191.961 245.568L195.349 247.416C194.807 248.611 193.939 249.544 192.745 250.216C191.569 250.888 190.187 251.224 188.601 251.224ZM213.04 235.936V251H208.896V249.208C208.317 249.861 207.626 250.365 206.824 250.72C206.021 251.056 205.153 251.224 204.22 251.224C202.241 251.224 200.673 250.655 199.516 249.516C198.358 248.377 197.78 246.688 197.78 244.448V235.936H202.148V243.804C202.148 246.231 203.165 247.444 205.2 247.444C206.245 247.444 207.085 247.108 207.72 246.436C208.354 245.745 208.672 244.728 208.672 243.384V235.936H213.04ZM222.154 251.224C220.904 251.224 219.681 251.075 218.486 250.776C217.292 250.459 216.34 250.067 215.63 249.6L217.086 246.464C217.758 246.893 218.57 247.248 219.522 247.528C220.474 247.789 221.408 247.92 222.322 247.92C224.17 247.92 225.094 247.463 225.094 246.548C225.094 246.119 224.842 245.811 224.338 245.624C223.834 245.437 223.06 245.279 222.014 245.148C220.782 244.961 219.765 244.747 218.962 244.504C218.16 244.261 217.46 243.832 216.862 243.216C216.284 242.6 215.994 241.723 215.994 240.584C215.994 239.632 216.265 238.792 216.806 238.064C217.366 237.317 218.169 236.739 219.214 236.328C220.278 235.917 221.529 235.712 222.966 235.712C224.03 235.712 225.085 235.833 226.13 236.076C227.194 236.3 228.072 236.617 228.762 237.028L227.306 240.136C225.981 239.389 224.534 239.016 222.966 239.016C222.033 239.016 221.333 239.147 220.866 239.408C220.4 239.669 220.166 240.005 220.166 240.416C220.166 240.883 220.418 241.209 220.922 241.396C221.426 241.583 222.229 241.76 223.33 241.928C224.562 242.133 225.57 242.357 226.354 242.6C227.138 242.824 227.82 243.244 228.398 243.86C228.977 244.476 229.266 245.335 229.266 246.436C229.266 247.369 228.986 248.2 228.426 248.928C227.866 249.656 227.045 250.225 225.962 250.636C224.898 251.028 223.629 251.224 222.154 251.224ZM247.059 251.224C245.472 251.224 244.044 250.897 242.775 250.244C241.524 249.572 240.544 248.648 239.835 247.472C239.126 246.296 238.771 244.961 238.771 243.468C238.771 241.975 239.126 240.64 239.835 239.464C240.544 238.288 241.524 237.373 242.775 236.72C244.044 236.048 245.472 235.712 247.059 235.712C248.646 235.712 250.064 236.048 251.315 236.72C252.566 237.373 253.546 238.288 254.255 239.464C254.964 240.64 255.319 241.975 255.319 243.468C255.319 244.961 254.964 246.296 254.255 247.472C253.546 248.648 252.566 249.572 251.315 250.244C250.064 250.897 248.646 251.224 247.059 251.224ZM247.059 247.64C248.179 247.64 249.094 247.267 249.803 246.52C250.531 245.755 250.895 244.737 250.895 243.468C250.895 242.199 250.531 241.191 249.803 240.444C249.094 239.679 248.179 239.296 247.059 239.296C245.939 239.296 245.015 239.679 244.287 240.444C243.559 241.191 243.195 242.199 243.195 243.468C243.195 244.737 243.559 245.755 244.287 246.52C245.015 247.267 245.939 247.64 247.059 247.64ZM267.395 235.712C269.261 235.712 270.764 236.272 271.903 237.392C273.06 238.512 273.639 240.173 273.639 242.376V251H269.271V243.048C269.271 241.853 269.009 240.967 268.487 240.388C267.964 239.791 267.208 239.492 266.219 239.492C265.117 239.492 264.24 239.837 263.587 240.528C262.933 241.2 262.607 242.208 262.607 243.552V251H258.239V235.936H262.411V237.7C262.989 237.065 263.708 236.58 264.567 236.244C265.425 235.889 266.368 235.712 267.395 235.712ZM302.552 246.884H299.36V251H294.936V246.884H284.38V243.832L293.62 231.4H298.38L289.812 243.188H295.076V239.52H299.36V243.188H302.552V246.884ZM322.478 250.272C322.049 250.589 321.517 250.832 320.882 251C320.266 251.149 319.613 251.224 318.922 251.224C317.13 251.224 315.739 250.767 314.75 249.852C313.779 248.937 313.294 247.593 313.294 245.82V239.632H310.97V236.272H313.294V232.604H317.662V236.272H321.414V239.632H317.662V245.764C317.662 246.399 317.821 246.893 318.138 247.248C318.474 247.584 318.941 247.752 319.538 247.752C320.229 247.752 320.817 247.565 321.302 247.192L322.478 250.272ZM334.086 235.712C335.953 235.712 337.455 236.272 338.594 237.392C339.751 238.512 340.33 240.173 340.33 242.376V251H335.962V243.048C335.962 241.853 335.701 240.967 335.178 240.388C334.655 239.791 333.899 239.492 332.91 239.492C331.809 239.492 330.931 239.837 330.278 240.528C329.625 241.2 329.298 242.208 329.298 243.552V251H324.93V230.224H329.298V237.504C329.877 236.925 330.577 236.487 331.398 236.188C332.219 235.871 333.115 235.712 334.086 235.712ZM344.289 235.936H348.657V251H344.289V235.936ZM346.473 233.836C345.671 233.836 345.017 233.603 344.513 233.136C344.009 232.669 343.757 232.091 343.757 231.4C343.757 230.709 344.009 230.131 344.513 229.664C345.017 229.197 345.671 228.964 346.473 228.964C347.276 228.964 347.929 229.188 348.433 229.636C348.937 230.084 349.189 230.644 349.189 231.316C349.189 232.044 348.937 232.651 348.433 233.136C347.929 233.603 347.276 233.836 346.473 233.836ZM361.867 235.712C363.734 235.712 365.237 236.272 366.375 237.392C367.533 238.512 368.111 240.173 368.111 242.376V251H363.743V243.048C363.743 241.853 363.482 240.967 362.959 240.388C362.437 239.791 361.681 239.492 360.691 239.492C359.59 239.492 358.713 239.837 358.059 240.528C357.406 241.2 357.079 242.208 357.079 243.552V251H352.711V235.936H356.883V237.7C357.462 237.065 358.181 236.58 359.039 236.244C359.898 235.889 360.841 235.712 361.867 235.712ZM387.775 235.936V248.48C387.775 251.243 387.056 253.296 385.619 254.64C384.181 255.984 382.081 256.656 379.319 256.656C377.863 256.656 376.481 256.479 375.175 256.124C373.868 255.769 372.785 255.256 371.927 254.584L373.663 251.448C374.297 251.971 375.1 252.381 376.071 252.68C377.041 252.997 378.012 253.156 378.983 253.156C380.495 253.156 381.605 252.811 382.315 252.12C383.043 251.448 383.407 250.421 383.407 249.04V248.396C382.268 249.647 380.681 250.272 378.647 250.272C377.265 250.272 375.996 249.973 374.839 249.376C373.7 248.76 372.795 247.901 372.123 246.8C371.451 245.699 371.115 244.429 371.115 242.992C371.115 241.555 371.451 240.285 372.123 239.184C372.795 238.083 373.7 237.233 374.839 236.636C375.996 236.02 377.265 235.712 378.647 235.712C380.831 235.712 382.492 236.431 383.631 237.868V235.936H387.775ZM379.515 246.688C380.672 246.688 381.615 246.352 382.343 245.68C383.089 244.989 383.463 244.093 383.463 242.992C383.463 241.891 383.089 241.004 382.343 240.332C381.615 239.641 380.672 239.296 379.515 239.296C378.357 239.296 377.405 239.641 376.659 240.332C375.912 241.004 375.539 241.891 375.539 242.992C375.539 244.093 375.912 244.989 376.659 245.68C377.405 246.352 378.357 246.688 379.515 246.688ZM396.908 251.224C395.658 251.224 394.435 251.075 393.24 250.776C392.046 250.459 391.094 250.067 390.384 249.6L391.84 246.464C392.512 246.893 393.324 247.248 394.276 247.528C395.228 247.789 396.162 247.92 397.076 247.92C398.924 247.92 399.848 247.463 399.848 246.548C399.848 246.119 399.596 245.811 399.092 245.624C398.588 245.437 397.814 245.279 396.768 245.148C395.536 244.961 394.519 244.747 393.716 244.504C392.914 244.261 392.214 243.832 391.616 243.216C391.038 242.6 390.748 241.723 390.748 240.584C390.748 239.632 391.019 238.792 391.56 238.064C392.12 237.317 392.923 236.739 393.968 236.328C395.032 235.917 396.283 235.712 397.72 235.712C398.784 235.712 399.839 235.833 400.884 236.076C401.948 236.3 402.826 236.617 403.516 237.028L402.06 240.136C400.735 239.389 399.288 239.016 397.72 239.016C396.787 239.016 396.087 239.147 395.62 239.408C395.154 239.669 394.92 240.005 394.92 240.416C394.92 240.883 395.172 241.209 395.676 241.396C396.18 241.583 396.983 241.76 398.084 241.928C399.316 242.133 400.324 242.357 401.108 242.6C401.892 242.824 402.574 243.244 403.152 243.86C403.731 244.476 404.02 245.335 404.02 246.436C404.02 247.369 403.74 248.2 403.18 248.928C402.62 249.656 401.799 250.225 400.716 250.636C399.652 251.028 398.383 251.224 396.908 251.224ZM424.361 250.272C423.932 250.589 423.4 250.832 422.765 251C422.149 251.149 421.496 251.224 420.805 251.224C419.013 251.224 417.622 250.767 416.633 249.852C415.662 248.937 415.177 247.593 415.177 245.82V239.632H412.853V236.272H415.177V232.604H419.545V236.272H423.297V239.632H419.545V245.764C419.545 246.399 419.704 246.893 420.021 247.248C420.357 247.584 420.824 247.752 421.421 247.752C422.112 247.752 422.7 247.565 423.185 247.192L424.361 250.272ZM435.969 235.712C437.836 235.712 439.338 236.272 440.477 237.392C441.634 238.512 442.213 240.173 442.213 242.376V251H437.845V243.048C437.845 241.853 437.584 240.967 437.061 240.388C436.538 239.791 435.782 239.492 434.793 239.492C433.692 239.492 432.814 239.837 432.161 240.528C431.508 241.2 431.181 242.208 431.181 243.552V251H426.813V230.224H431.181V237.504C431.76 236.925 432.46 236.487 433.281 236.188C434.102 235.871 434.998 235.712 435.969 235.712ZM452.248 235.712C454.582 235.712 456.374 236.272 457.624 237.392C458.875 238.493 459.5 240.164 459.5 242.404V251H455.412V249.124C454.591 250.524 453.06 251.224 450.82 251.224C449.663 251.224 448.655 251.028 447.796 250.636C446.956 250.244 446.312 249.703 445.864 249.012C445.416 248.321 445.192 247.537 445.192 246.66C445.192 245.26 445.715 244.159 446.76 243.356C447.824 242.553 449.458 242.152 451.66 242.152H455.132C455.132 241.2 454.843 240.472 454.264 239.968C453.686 239.445 452.818 239.184 451.66 239.184C450.858 239.184 450.064 239.315 449.28 239.576C448.515 239.819 447.862 240.155 447.32 240.584L445.752 237.532C446.574 236.953 447.554 236.505 448.692 236.188C449.85 235.871 451.035 235.712 452.248 235.712ZM451.912 248.284C452.659 248.284 453.322 248.116 453.9 247.78C454.479 247.425 454.89 246.912 455.132 246.24V244.7H452.136C450.344 244.7 449.448 245.288 449.448 246.464C449.448 247.024 449.663 247.472 450.092 247.808C450.54 248.125 451.147 248.284 451.912 248.284ZM473.17 250.272C472.74 250.589 472.208 250.832 471.574 251C470.958 251.149 470.304 251.224 469.614 251.224C467.822 251.224 466.431 250.767 465.442 249.852C464.471 248.937 463.986 247.593 463.986 245.82V239.632H461.662V236.272H463.986V232.604H468.354V236.272H472.106V239.632H468.354V245.764C468.354 246.399 468.512 246.893 468.829 247.248C469.166 247.584 469.632 247.752 470.23 247.752C470.92 247.752 471.508 247.565 471.994 247.192L473.17 250.272ZM498.503 235.936L491.699 251.924C491.008 253.66 490.15 254.883 489.123 255.592C488.115 256.301 486.892 256.656 485.455 256.656C484.671 256.656 483.896 256.535 483.131 256.292C482.366 256.049 481.74 255.713 481.255 255.284L482.851 252.176C483.187 252.475 483.57 252.708 483.999 252.876C484.447 253.044 484.886 253.128 485.315 253.128C485.912 253.128 486.398 252.979 486.771 252.68C487.144 252.4 487.48 251.924 487.779 251.252L487.835 251.112L481.311 235.936H485.819L490.047 246.156L494.303 235.936H498.503ZM507.043 251.224C505.457 251.224 504.029 250.897 502.759 250.244C501.509 249.572 500.529 248.648 499.819 247.472C499.11 246.296 498.755 244.961 498.755 243.468C498.755 241.975 499.11 240.64 499.819 239.464C500.529 238.288 501.509 237.373 502.759 236.72C504.029 236.048 505.457 235.712 507.043 235.712C508.63 235.712 510.049 236.048 511.299 236.72C512.55 237.373 513.53 238.288 514.239 239.464C514.949 240.64 515.303 241.975 515.303 243.468C515.303 244.961 514.949 246.296 514.239 247.472C513.53 248.648 512.55 249.572 511.299 250.244C510.049 250.897 508.63 251.224 507.043 251.224ZM507.043 247.64C508.163 247.64 509.078 247.267 509.787 246.52C510.515 245.755 510.879 244.737 510.879 243.468C510.879 242.199 510.515 241.191 509.787 240.444C509.078 239.679 508.163 239.296 507.043 239.296C505.923 239.296 504.999 239.679 504.271 240.444C503.543 241.191 503.179 242.199 503.179 243.468C503.179 244.737 503.543 245.755 504.271 246.52C504.999 247.267 505.923 247.64 507.043 247.64ZM533.399 235.936V251H529.255V249.208C528.676 249.861 527.986 250.365 527.183 250.72C526.38 251.056 525.512 251.224 524.579 251.224C522.6 251.224 521.032 250.655 519.875 249.516C518.718 248.377 518.139 246.688 518.139 244.448V235.936H522.507V243.804C522.507 246.231 523.524 247.444 525.559 247.444C526.604 247.444 527.444 247.108 528.079 246.436C528.714 245.745 529.031 244.728 529.031 243.384V235.936H533.399ZM552.655 251.224C551.05 251.224 549.603 250.897 548.315 250.244C547.046 249.572 546.047 248.648 545.319 247.472C544.61 246.296 544.255 244.961 544.255 243.468C544.255 241.975 544.61 240.64 545.319 239.464C546.047 238.288 547.046 237.373 548.315 236.72C549.603 236.048 551.05 235.712 552.655 235.712C554.242 235.712 555.623 236.048 556.799 236.72C557.994 237.373 558.862 238.316 559.403 239.548L556.015 241.368C555.231 239.987 554.102 239.296 552.627 239.296C551.489 239.296 550.546 239.669 549.799 240.416C549.053 241.163 548.679 242.18 548.679 243.468C548.679 244.756 549.053 245.773 549.799 246.52C550.546 247.267 551.489 247.64 552.627 247.64C554.121 247.64 555.25 246.949 556.015 245.568L559.403 247.416C558.862 248.611 557.994 249.544 556.799 250.216C555.623 250.888 554.242 251.224 552.655 251.224ZM567.994 235.712C570.328 235.712 572.12 236.272 573.37 237.392C574.621 238.493 575.246 240.164 575.246 242.404V251H571.158V249.124C570.337 250.524 568.806 251.224 566.566 251.224C565.409 251.224 564.401 251.028 563.542 250.636C562.702 250.244 562.058 249.703 561.61 249.012C561.162 248.321 560.938 247.537 560.938 246.66C560.938 245.26 561.461 244.159 562.506 243.356C563.57 242.553 565.204 242.152 567.406 242.152H570.878C570.878 241.2 570.589 240.472 570.01 239.968C569.432 239.445 568.564 239.184 567.406 239.184C566.604 239.184 565.81 239.315 565.026 239.576C564.261 239.819 563.608 240.155 563.066 240.584L561.498 237.532C562.32 236.953 563.3 236.505 564.438 236.188C565.596 235.871 566.781 235.712 567.994 235.712ZM567.658 248.284C568.405 248.284 569.068 248.116 569.646 247.78C570.225 247.425 570.636 246.912 570.878 246.24V244.7H567.882C566.09 244.7 565.194 245.288 565.194 246.464C565.194 247.024 565.409 247.472 565.838 247.808C566.286 248.125 566.893 248.284 567.658 248.284ZM588.356 235.712C590.222 235.712 591.725 236.272 592.864 237.392C594.021 238.512 594.6 240.173 594.6 242.376V251H590.232V243.048C590.232 241.853 589.97 240.967 589.448 240.388C588.925 239.791 588.169 239.492 587.18 239.492C586.078 239.492 585.201 239.837 584.548 240.528C583.894 241.2 583.568 242.208 583.568 243.552V251H579.2V235.936H583.372V237.7C583.95 237.065 584.669 236.58 585.528 236.244C586.386 235.889 587.329 235.712 588.356 235.712ZM349.611 270.272H353.475V273.632H349.723V285H345.355V273.632H343.031V270.272H345.355V269.6C345.355 267.883 345.859 266.52 346.867 265.512C347.893 264.504 349.331 264 351.179 264C351.832 264 352.448 264.075 353.027 264.224C353.624 264.355 354.119 264.551 354.511 264.812L353.363 267.976C352.859 267.621 352.271 267.444 351.599 267.444C350.273 267.444 349.611 268.172 349.611 269.628V270.272ZM370.215 277.524C370.215 277.58 370.187 277.972 370.131 278.7H358.735C358.941 279.633 359.426 280.371 360.191 280.912C360.957 281.453 361.909 281.724 363.047 281.724C363.831 281.724 364.522 281.612 365.119 281.388C365.735 281.145 366.305 280.772 366.827 280.268L369.151 282.788C367.733 284.412 365.661 285.224 362.935 285.224C361.237 285.224 359.734 284.897 358.427 284.244C357.121 283.572 356.113 282.648 355.403 281.472C354.694 280.296 354.339 278.961 354.339 277.468C354.339 275.993 354.685 274.668 355.375 273.492C356.085 272.297 357.046 271.373 358.259 270.72C359.491 270.048 360.863 269.712 362.375 269.712C363.85 269.712 365.185 270.029 366.379 270.664C367.574 271.299 368.507 272.213 369.179 273.408C369.87 274.584 370.215 275.956 370.215 277.524ZM362.403 273.016C361.414 273.016 360.583 273.296 359.911 273.856C359.239 274.416 358.829 275.181 358.679 276.152H366.099C365.95 275.2 365.539 274.444 364.867 273.884C364.195 273.305 363.374 273.016 362.403 273.016ZM387.879 277.524C387.879 277.58 387.851 277.972 387.795 278.7H376.399C376.605 279.633 377.09 280.371 377.855 280.912C378.621 281.453 379.573 281.724 380.711 281.724C381.495 281.724 382.186 281.612 382.783 281.388C383.399 281.145 383.969 280.772 384.491 280.268L386.815 282.788C385.397 284.412 383.325 285.224 380.599 285.224C378.901 285.224 377.398 284.897 376.091 284.244C374.785 283.572 373.777 282.648 373.067 281.472C372.358 280.296 372.003 278.961 372.003 277.468C372.003 275.993 372.349 274.668 373.039 273.492C373.749 272.297 374.71 271.373 375.923 270.72C377.155 270.048 378.527 269.712 380.039 269.712C381.514 269.712 382.849 270.029 384.043 270.664C385.238 271.299 386.171 272.213 386.843 273.408C387.534 274.584 387.879 275.956 387.879 277.524ZM380.067 273.016C379.078 273.016 378.247 273.296 377.575 273.856C376.903 274.416 376.493 275.181 376.343 276.152H383.763C383.614 275.2 383.203 274.444 382.531 273.884C381.859 273.305 381.038 273.016 380.067 273.016ZM390.787 264.224H395.155V285H390.787V264.224Z" fill="#246482"/>
</svg>
